<svg version="1.2" xmlns="http://www.w3.org/2000/svg" viewBox="0 0 318 118" width="318" height="118"><style>.a{fill:#fff}.b{fill:#2b70e4}.c{fill:none;stroke:#fff;stroke-width:1.5}</style><path class="a" d="m19.4 66.9l-3.2-3.2v-21.9h7.5q2.7 0.1 4.9 1 2.1 0.9 3.7 2.6l2.6 2.5q3.2 3.2 3.2 8 0 2.5-0.9 4.5-0.8 2-2.3 3.4-1.5 1.5-3.6 2.3-2.1 0.8-4.6 0.8zm-2.6-3.6h6.9q2.4 0 4.4-0.8 2-0.7 3.5-2.1 1.5-1.4 2.3-3.3 0.8-1.9 0.8-4.2 0-2.3-0.9-4.2-0.8-1.9-2.2-3.4-1.5-1.4-3.5-2.1-2-0.8-4.4-0.8h-6.9zm4.3-3.9v-12.9h2.7q2 0 3.4 0.8 1.5 0.8 2.3 2.2 0.8 1.4 0.8 3.4 0 2-0.8 3.4-0.8 1.5-2.3 2.3-1.5 0.8-3.5 0.8zm0.6-11.9h0.3v-0.4h-0.3zm1 0h0.3v-0.3h-0.3zm1.1 0h0.3v-0.3h-0.3zm1.2-0.1h0.2v-0.2h-0.2zm-2.9 0.6h0.4v-0.3h-0.4zm12.1 15.3h0.5l0.1-0.1v-0.4h0.4l0.1-0.2v-0.4h0.3l0.3-0.4v-0.1h0.1q0.4-0.6 0.7-1.2h-0.2v-0.4h0.3q0.3-0.7 0.4-1.3h-0.1v-0.3h0.2q0.1-0.6 0.2-1.3 0.1-0.6 0.1-1.3 0-1.8-0.4-3.2-0.3-1.4-1.1-2.6-0.8-1.3-2.1-2.5 0.6 1.2 0.9 2.5 0.4 1.4 0.4 2.7 0 0.7-0.1 1.3-0.1 0.6-0.2 1.2h0.2v0.2h-0.2q-0.1 0.3-0.2 0.7-0.1 0.3-0.2 0.7v0.3h-0.2q-0.1 0.3-0.2 0.6-0.2 0.3-0.4 0.7h0.3v0.3h-0.4v-0.2q-0.1 0.2-0.2 0.4h0.1v0.4h-0.4l-0.1 0.2v0.4h-0.3l-0.2 0.2v0.3h-0.4l-0.2 0.2v0.4h0.6v0.5h0.5v0.6h-0.5v0.5h0.5v-0.5h0.6v0.5h0.5zm-11-15.3h0.3v-0.3h-0.3zm1.2 0h0.3v-0.3h-0.3zm1.1-0.1h0.3v-0.2h-0.3zm1.2 0h0.1v-0.1h-0.1zm-5 0.7h0.3v-0.5h-0.3zm1-0.1h0.3v-0.4h-0.3zm1.1 0h0.3v-0.3h-0.3zm1.1 0h0.3v-0.3h-0.3zm1.2-0.1h0.2v-0.2h-0.2zm1.2 0h0.2v-0.2h-0.2zm-5.6 10.4h2.1q0.1 0 0.2 0 0.1 0 0.2 0v-6.5h-0.4v-0.3h0.4v-0.7h-0.5v-0.5h0.5v-0.5h-0.5v0.5h-0.5v-0.5h0.5v-0.5h-0.5v0.4h-0.5v-0.5h0.4v-0.5h-0.5v0.5h-0.5v-0.5h0.5v-0.5h-0.5v0.4h-0.4v0.7h0.3v0.3h-0.3zm1.5-9.7h0.4v-0.3h-0.4zm1.2 0h0.3v-0.3h-0.3zm1.1 0h0.3v-0.4h-0.3zm1.2 0h0.2v-0.2h-0.2zm1.2-0.1h0.1v-0.1h-0.1zm-4.1 0.6h0.3v-0.4h-0.3zm0.9 9.2q1.6-0.2 2.7-1 1.2-0.7 1.8-2 0.6-1.2 0.6-2.9 0-0.7-0.1-1.4-0.1-0.6-0.3-1.2-0.6-0.2-1.3-0.3-0.7-0.2-1.7-0.2h-1.7zm-2.5-8v-0.4h0.3v0.4zm0.6 0.5v-0.3h0.3v0.3zm0.6 0.5v-0.3h0.3v0.3zm-1 0v-0.2h0.2v0.2zm0.5 0.5v-0.2h0.2v0.2zm0.5 0.6v-0.2h0.2v0.2zm0.5 0.5v-0.2h0.2v0.2zm11.6 0.5v-0.1h0.2v0.1zm0.5 0.6v-0.2h0.1v0.2zm-0.5 0.5v-0.1h0.2v0.1zm1.1 0v-0.1h0.1v0.1zm-0.6 0.6v-0.2h0.2v0.2zm1.1 0v-0.2h0.1v0.2zm-1.6 0.6v-0.3h0.2v0.3zm1.1-0.1v-0.1h0.2v0.1zm-1.7 0.6v-0.2h0.3v0.2zm1 0v-0.2h0.3v0.2zm1.1 0v-0.2h0.2v0.2zm-1.7 0.6v-0.3h0.2v0.3zm1.2-0.1v-0.2h0.2v0.2zm-1.7 0.6v-0.3h0.3v0.3zm1.1 0v-0.3h0.3v0.3zm1.1 0v-0.2h0.2v0.2zm-2.8 0.6v-0.4h0.4v0.4zm1.1 0v-0.3h0.3v0.3zm1.1 0v-0.3h0.2v0.3zm-1.6 0.5v-0.3h0.3v0.3zm1.1 0v-0.3h0.3v0.3zm-1.7 0.6v-0.4h0.4v0.4zm1.1 0v-0.4h0.4v0.4zm1.1 0v-0.3h0.3v0.3zm-2.8 0.6v-0.5h0.4v0.5zm1.1 0v-0.4h0.4v0.4zm1.1-0.1v-0.3h0.4v0.3zm-2.8 0.6v-0.4h0.5v0.4zm1.1 0v-0.4h0.4v0.4zm1.1 0v-0.4h0.4v0.4zm-2.8 0.6v-0.5h0.5v0.5zm1.1 0v-0.5h0.5v0.5zm1.1 0v-0.4h0.4v0.4zm1.2-0.1v-0.3h0.3v0.3zm-4.4 0.7h0.5v-0.6h-0.4l-0.1 0.1zm1.6 0v-0.5h0.6v0.5zm1.1 0v-0.5h0.4v0.5zm1.2 0v-0.4h0.4v0.4zm-3.3 0.6h0.5v-0.6h-0.5zm1.6 0.1v-0.6h0.5v0.6zm-2.7-0.1h0.5v-0.5h-0.5zm3.8 0v-0.4h0.5v0.4zm-4.7 0.1h0.2v-0.1zm1.4 0.5h0.5v-0.5h-0.5zm2.7 0v-0.5h0.5v0.5zm-3.8 0h0.5v-0.4h-0.5zm-1-0.1h0.4v-0.3l-0.4 0.3zm3.7 0.5h0.6v-0.5h-0.6zm-1 0h0.4v-0.4h-0.4zm-1.1-0.1h0.4v-0.4h-0.4zm-1.1 0h0.4v-0.4h-0.4zm-1 0h0.3v-0.4h-0.3zm-1.1 0.1h0.3v-0.1zm5.9 0.6h0.4l0.1-0.1v-0.4h-0.5zm-1.1 0h0.5v-0.5h-0.5zm-1.1-0.1h0.5v-0.4h-0.5zm-1 0h0.3v-0.4h-0.3zm-1.1 0h0.4v-0.4h-0.4zm-1.1 0h0.3v-0.3h-0.3zm-1-0.1h0.2v-0.2h-0.2zm-1.1-0.1h0.2v-0.1l-0.2 0.1zm6.9 0.6h0.3l0.2-0.1v-0.3h-0.5zm-1 0h0.4v-0.5h-0.4zm-1.1 0h0.4v-0.4h-0.4zm-1.1 0h0.4v-0.4h-0.4zm-1 0h0.3v-0.3h-0.3zm-1.1 0h0.3v-0.3h-0.3zm-1.1 0h0.2v-0.2h-0.2zm-1 0h0.1v-0.2h-0.1zm-1.1-0.1h0.1v-0.1h-0.1zm8 0.7l0.5-0.3v-0.1h-0.5zm-1 0h0.4v-0.4h-0.4zm-1.1 0h0.3v-0.4h-0.3zm-1.1 0h0.3v-0.3h-0.3zm-1.1 0h0.3v-0.3h-0.3zm-1 0h0.2v-0.2h-0.2zm-1.1 0h0.2v-0.2h-0.2zm-1.1 0h0.2v-0.1h-0.2zm7 0.4l0.2-0.2h-0.2zm-1.1 0.3h0.4v-0.4h-0.4zm-1 0h0.3v-0.3h-0.3zm-1.1 0h0.2v-0.3h-0.2zm-1.1 0h0.3v-0.2h-0.3zm-1.1-0.1h0.2v-0.1h-0.2zm-1-0.1h0.1v-0.1h-0.1zm4.8 0.5l0.3-0.1v-0.1h-0.3zm-1.1 0.1h0.3v-0.2h-0.3zm-1-0.1h0.2v-0.2h-0.2zm-1.1 0h0.2v-0.2h-0.2zm-1.1 0h0.2v-0.2h-0.2zm1.6 0.5h0.2v-0.1h-0.2zm-1 0.1h0.1v-0.1h-0.1z"/><path class="a" d="m51.4 67.3q-2.3 0-4.1-0.7-1.7-0.6-3.1-2l-2.6-2.6q-1.3-1.3-2-3.2-0.7-1.9-0.7-4.4v-12.6h5.2l3.4 3.3v12q0 0.6 0.1 1.2 0 0.5 0.1 1 0.2 0 0.4 0 0.2 0 0.4 0 2.1 0 3.2-1.3 1-1.4 1-3.9v-12.3h5.3l3.2 3.3v11.7q0 2.4-0.7 4.3-0.7 1.9-2 3.3-1.3 1.4-3.1 2.1-1.8 0.8-4 0.8zm-2.9-3.5q4.5 0 6.8-2.4 2.3-2.4 2.3-7v-12h-4.3v11.7q0 2.7-1.3 4.2-1.2 1.6-3.5 1.6-1.6 0-2.6-0.8-1.1-0.7-1.6-2-0.6-1.2-0.6-3v-11.7h-4.2v12q0 4.6 2.3 7 2.3 2.4 6.7 2.4zm-4.2-20.6h0.4l-0.4-0.4zm13.8 0h0.4v-0.2l-0.4-0.3zm-13.2 0.6h0.4v-0.1l-0.4-0.4zm13.7 0h0.4v-0.1l-0.3-0.3h-0.1zm-14.3 0.6h0.5v-0.6h-0.5zm13.8 0h0.4v-0.5h-0.4zm-12.7 0h0.4v-0.1l-0.3-0.4h-0.1zm13.7 0h0.5v-0.1l-0.3-0.3h-0.2zm-14.3 0.6h0.5v-0.5h-0.5zm13.7 0h0.6v-0.5h-0.6zm-12.5-0.1h0.4v-0.1l-0.3-0.3h-0.1zm13.7 0h0.4v-0.1l-0.3-0.3h-0.1zm-12.5 14.2q-0.2-0.9-0.2-2v-7.9h-0.5v-0.4h0.5v-0.6h-0.5v-0.5h0.5v-0.6h-0.6v-0.5h-0.5v-0.6h-0.6v-0.6h-0.5v-0.5h-0.5v0.6h0.5v0.5h-0.5v0.6h0.5v0.4h-0.5v7.1q0 1.2 0.3 2.2 0.3 1 0.9 1.8 0.6 0.7 1.7 1zm10.2 5.3h0.3l0.3-0.3v-0.2h0.2q0.7-0.8 1.2-1.8h-0.3v-0.3h0.4v0.1l0.2-0.4v-0.3h0.1q0.4-0.9 0.6-2.1 0.2-1.1 0.2-2.3v-6.5h-0.3v-0.4h0.3v-0.7h-0.4v-0.4h0.4v-0.6h-0.4v-0.5h0.4v-0.6h-0.4v-0.5h-0.6v-0.6h-0.5v-0.6h-0.6v-0.5h-0.4v0.6h0.4v0.5h-0.4v0.6h0.4v0.4h-0.4v0.7h0.4v0.4h-0.4v0.7h0.3v0.4h-0.3v0.8h0.3v0.2h-0.3v4.1q0 2.1-0.4 3.7h0.1v0.3h-0.2q-0.1 0.3-0.2 0.7-0.1 0.3-0.3 0.6h0.2v0.4h-0.3v-0.1l-0.2 0.3v0.3h-0.2q-0.4 0.7-0.8 1.2-0.3 0.2-0.5 0.4-0.3 0.3-0.5 0.5v0.1h0.5v-0.5h0.5v0.5h0.6v0.6h0.5v0.5h0.5zm-12-18.9h0.5v-0.5h-0.5zm13.7 0h0.5v-0.5h-0.5zm-12.6 0h0.5v-0.2l-0.4-0.3h-0.1zm13.7 0h0.4v-0.1l-0.2-0.3h-0.2zm-14.3 0.6h0.5v-0.5h-0.5zm13.7 0h0.6v-0.5h-0.6zm-14.8 0.5v-0.5h0.5v0.5zm13.8 0v-0.5h0.5v0.5zm-12.1 0h0.5v-0.5h-0.5zm13.7 0h0.4v-0.5h-0.4zm-14.8 0.5v-0.5h0.5v0.5zm13.7 0v-0.5h0.5v0.5zm-14.2 0.6v-0.5h0.4v0.5zm1.1 0v-0.5h0.5v0.5zm13.7 0v-0.5h0.5v0.5zm-1.1 0v-0.5h0.5v0.5zm-13.2 0.5v-0.5h0.4v0.5zm13.8 0v-0.5h0.4v0.5zm-14.8 0v-0.4h0.4v0.4zm1.6 0.5v-0.4h0.5v0.4zm13.7 0v-0.4h0.5v0.4zm-14.8 0v-0.4h0.4v0.4zm13.7 0v-0.4h0.4v0.4zm-13.2 0.6v-0.4h0.4v0.4zm13.8 0v-0.4h0.3v0.4zm-14.8-0.1v-0.3h0.4v0.3zm1.6 0.6v-0.4h0.4v0.4zm13.7 0v-0.4h0.4v0.4zm-14.8 0v-0.4h0.4v0.4zm13.7 0v-0.4h0.4v0.4zm-12.2 0.5v-0.4h0.4v0.4zm-1 0v-0.3h0.3v0.3zm13.7 0v-0.3h0.4v0.3zm-14.8 0v-0.3h0.2v0.3zm1.7 0.6v-0.4h0.3v0.4zm13.7 0v-0.4h0.4v0.4zm-14.8-0.1v-0.2h0.2v0.2zm13.8 0v-0.2h0.3v0.2zm-12.2 0.6v-0.3h0.4v0.3zm13.7 0v-0.3h0.4v0.3zm-14.9 0v-0.3h0.3v0.3zm13.7 0v-0.3h0.3v0.3zm-14.8 0v-0.3h0.3v0.3zm13.7 0v-0.3h0.2v0.3zm-12.1 0.5v-0.3h0.3v0.3zm13.7 0v-0.2h0.3v0.2zm-14.8 0v-0.2h0.2v0.2zm13.7 0v-0.2h0.3v0.2zm-12.2 0.6v-0.3h0.3v0.3zm13.7 0v-0.3h0.3v0.3zm-14.8-0.1v-0.2h0.2v0.2zm13.7 0v-0.2h0.3v0.2zm-14.8 0v-0.1h0.1v0.1zm13.7 0v-0.1h0.2v0.1zm-12.1 0.6v-0.2h0.2v0.2zm13.7 0v-0.2h0.2v0.2zm-14.8 0v-0.2h0.2v0.2zm13.8 0v-0.2h0.1v0.2zm-12.2 0.5v-0.2h0.3v0.2zm13.7 0v-0.2h0.2v0.2zm-14.8 0v-0.2h0.2v0.2zm13.7 0v-0.1h0.2v0.1zm-13.2 0.5v-0.1h0.1v0.1zm13.8 0v-0.1h0.1v0.1zm-13.2 0.6v-0.2h0.2v0.2zm13.7 0v-0.2h0.2v0.2zm-2.2 1v-0.1h0.1v0.1zm0.6 0.6v-0.2h0.1v0.2zm-0.6 0.5v-0.2h0.2v0.2zm1.1 0v-0.2h0.2v0.2zm-0.6 0.5v-0.2h0.2v0.2zm1.1 0v-0.1h0.1v0.1zm-1.6 0.6v-0.2h0.2v0.2zm1.1 0v-0.2h0.2v0.2zm1.1 0v-0.2h0.2v0.2zm-1.7 0.6v-0.3h0.2v0.3zm1.1-0.1v-0.2h0.2v0.2zm-1.6 0.6v-0.3h0.2v0.3zm1.1 0v-0.2h0.3v0.2zm1.1 0v-0.2h0.2v0.2zm-2.8 0.6v-0.3h0.3v0.3zm1.1-0.1v-0.2h0.3v0.2zm1.1 0v-0.2h0.2v0.2zm-1.6 0.6v-0.3h0.3v0.3zm1.1 0v-0.3h0.3v0.3zm-1.7 0.6v-0.4h0.4v0.4zm1.1-0.1v-0.3h0.3v0.3zm1.1 0v-0.3h0.2v0.3zm-2.7 0.6v-0.4h0.4v0.4zm1.1 0v-0.4h0.4v0.4zm1.1 0v-0.3h0.3v0.3zm-2.8 0.6v-0.5h0.5v0.5zm1.1 0v-0.4h0.4v0.4zm1.1 0v-0.4h0.3v0.4zm-2.7 0.6v-0.6h0.5v0.6zm1.1-0.1v-0.4h0.4v0.4zm1.1 0v-0.4h0.4v0.4zm-1.6 0.6v-0.5h0.5v0.5zm1.1 0v-0.5h0.4v0.5zm1.1-0.1v-0.4h0.4v0.4zm-3.2 0.6h0.5v-0.5h-0.5zm1.6 0v-0.5h0.5v0.5zm-2.7 0h0.5v-0.5h-0.3l-0.2 0.2zm3.8 0v-0.4h0.4v0.4zm-2.1 0.6h0.5v-0.5h-0.5zm-1.1-0.1h0.5v-0.4h-0.5zm2.7 0v-0.5h0.5v0.5zm-3.7-0.1h0.4v-0.4h-0.4zm-1.1 0h0.4v-0.2l-0.4 0.1zm3.7 0.6h0.5v-0.5h-0.5zm-1 0h0.4v-0.4h-0.4zm-1.1-0.1h0.4v-0.4h-0.4zm-1 0h0.3v-0.3h-0.3zm-1.1-0.1h0.3v-0.3h-0.3zm-1.1 0h0.3v-0.2l-0.3 0.1zm5.8 0.6h0.2l0.4-0.3v-0.2h-0.6zm-1 0h0.5v-0.5h-0.5zm-1 0h0.4v-0.4h-0.4zm-1.1 0h0.4v-0.4h-0.4zm-1.1 0h0.4v-0.3h-0.4zm-1 0h0.2v-0.3h-0.2zm-1.1 0h0.3v-0.2h-0.3zm-1 0h0.1v-0.2h-0.1zm6.8 0.7l0.5-0.4v-0.1h-0.5zm-1 0.1h0.4v-0.4h-0.4zm-1.1-0.1h0.4v-0.3h-0.4zm-1-0.1h0.3v-0.3h-0.3zm-1.1 0h0.3v-0.3h-0.3zm-1 0h0.2v-0.2h-0.2zm-1.1 0h0.2v-0.2h-0.2zm5.8 0.4l0.2-0.2h-0.2zm-1 0.3h0.3v-0.4h-0.3zm-1.1 0h0.3v-0.3h-0.3zm-1 0h0.2v-0.3h-0.2zm-1.1 0h0.2v-0.3h-0.2zm-1.1 0h0.2v-0.1h-0.2zm3.8 0.4l0.3-0.1h-0.3zm-1.1 0.1h0.3v-0.3h-0.3zm-1.1 0h0.3v-0.2h-0.3zm-1-0.1h0.2v-0.1h-0.2z"/><path class="a" d="m66.6 66.9l-3.2-3.2v-21.9h5l5.5 3.3 3.3 4.9v-8.2h5l3.4 3.4v21.7h-5.2l-3.2-3.2-5.4-8v11.2zm-2.6-3.6h4.1v-14.2l9.5 14.2h4.2v-20.9h-4.1v14.1l-9.5-14.1h-4.2zm18.4-20.1h0.4l-0.4-0.3zm-5.7 10.6h0.5v-0.6h-0.4v-0.5h0.4v-0.6h-0.4v-0.5h0.4v-0.7h-0.3v-0.3h0.1l-3.5-5.1-4.2-2.5 4.4 6.5h0.2v0.3l0.2 0.3v-0.1h0.4v0.4h-0.2l0.3 0.5v-0.4h0.4v0.5h-0.3l0.8 1.1h0.1v0.3l0.2 0.3h0.4v0.5h0.5zm6.3-10h0.3l-0.3-0.4zm-0.6 0.6h0.4v-0.5h-0.4zm1.1 0h0.4l-0.4-0.4zm-0.6 0.6h0.5v-0.4h-0.5zm1.2-0.1h0.4l-0.4-0.3zm-1.7 0.6h0.5v-0.5h-0.5zm1.1-0.1h0.4v-0.4h-0.4zm1.1 0h0.4l-0.4-0.4zm-1.7 0.6h0.5v-0.5h-0.5zm1.1 0h0.5v-0.5h-0.5zm1 20.4v-16h-0.4v-0.4h0.4v-0.6h-0.4v-0.5h0.4v-0.6h-0.5v-0.6h-0.5v-0.5h-0.6v-0.6h-0.5v-0.5h-0.5v0.6h0.5v0.5h-0.5v16.7zm-1.6-19.8h0.5v-0.5h-0.5zm1.1 0h0.5v-0.5h-0.5zm-0.6 0.6h0.6v-0.5h-0.6zm-1.1 0.6v-0.6h0.5v0.6zm1.7 0h0.5v-0.5h-0.5zm-12-0.1v-0.1h0.1v0.1zm10.9 0.6v-0.5h0.5v0.5zm-1.1 0v-0.5h0.5v0.5zm-9.3-0.1v-0.1h0.2v0.1zm1.1 0v-0.1h0.1v0.1zm9.8 0.6v-0.5h0.5v0.5zm-1.1 0v-0.4h0.5v0.4zm-9.3 0v-0.2h0.2v0.2zm1 0v-0.2h0.2v0.2zm8.7 0.5v-0.4h0.4v0.4zm-1.1 0v-0.4h0.5v0.4zm-8.3 0v-0.1h0.2v0.1zm1.2 0v-0.1h0.1v0.1zm8.7 0.6v-0.5h0.5v0.5zm-1.1 0v-0.4h0.4v0.4zm-8.3 0v-0.2h0.3v0.2zm1.1 0v-0.2h0.2v0.2zm7.7 0.5v-0.4h0.4v0.4zm-1.1 0v-0.4h0.3v0.4zm-7.2 0.1v-0.3h0.3v0.3zm1.1 0v-0.3h0.3v0.3zm7.7 0.4v-0.3h0.4v0.3zm-1.1 0v-0.3h0.4v0.3zm-7.3 0.2v-0.4h0.4v0.4zm8.8 0.4v-0.4h0.4v0.4zm-1.1 0v-0.4h0.4v0.4zm-1.1-0.1v-0.2h0.3v0.2zm-7.3 0.3v-0.5h0.4v0.5zm1.1 0v-0.5h0.5v0.5zm7.8 0.3v-0.3h0.3v0.3zm-1 0v-0.3h0.3v0.3zm-7.4 0.2v-0.5h0.5v0.5zm9 0.4v-0.4h0.3v0.4zm-1.1-0.1v-0.2h0.3v0.2zm-7.4 0.3v-0.5h0.5v0.5zm6.3-0.3v-0.2h0.2v0.2zm-13.7 0.4h0.2v-0.2h-0.2zm15.4 0.1v-0.2h0.2v0.2zm-1 0v-0.2h0.2v0.2zm-13.8 0.4h0.2v-0.2h-0.2zm15.4 0.1v-0.3h0.3v0.3zm-1.1 0v-0.2h0.2v0.2zm-1.1 0v-0.2h0.2v0.2zm-13.9 0.5h0.4v-0.4h-0.4zm1.2 0h0.2v-0.3h-0.2zm6.9 0.2v-0.3h-0.2zm7.4 0v-0.2h0.3v0.2zm-1.1 0v-0.1h0.2v0.1zm-13.9 0.5h0.3v-0.3h-0.3zm1.1-0.1h0.3v-0.2h-0.3zm6.8 0.2v-0.3h-0.2zm7.5-0.1v-0.3h0.2v0.3zm-1-0.1v-0.1h0.1v0.1zm-15 0.6h0.5v-0.5h-0.5zm1.2 0h0.3v-0.4h-0.3zm1.1 0h0.3v-0.3h-0.3zm13.3 0.1v-0.1h0.1v0.1zm-15 0.6h0.5v-0.5h-0.5zm1.2 0h0.3v-0.3h-0.3zm14.4 0v-0.1h0.1v0.1zm-13.4 10.7v-7.4h-0.5v-0.5h0.5v-0.6h-0.5v-0.5h-0.6v-0.5h-0.5v-0.6h-0.5v-0.5h-0.6v8.1zm-1.5-10.2h0.4v-0.4h-0.4zm1.1 0h0.4v-0.4h-0.4zm-2.2 0.6v-0.5h0.5v0.5zm1.6 0h0.5v-0.4h-0.5zm-1.1 0.5v-0.5h0.5v0.5zm1.7 0h0.4v-0.4h-0.4zm-1.1 0.5v-0.5h0.5v0.5zm-1.1 0v-0.4h0.4v0.4zm1.6 0.6v-0.5h0.5v0.5zm-1.1-0.1v-0.4h0.4v0.4zm0.6 0.5v-0.3h0.3v0.3zm-1 0v-0.3h0.3v0.3zm1.6 0.6v-0.4h0.3v0.4zm-1-0.1v-0.2h0.3v0.2zm1.6 0.6v-0.3h0.3v0.3zm-1 0v-0.3h0.3v0.3zm-1.1-0.1v-0.1h0.2v0.1zm1.5 0.6v-0.2h0.3v0.2zm-1 0v-0.2h0.1v0.2zm1.6 0.6v-0.3h0.3v0.3zm-1-0.1v-0.1h0.1v0.1zm0.5 0.6v-0.2h0.2v0.2zm0.5 0.5v-0.1h0.2v0.1z"/><path class="a" d="m91 66.9l-3.2-3.2v-21.9h7.5q2.7 0.1 4.9 1 2.1 0.9 3.8 2.6l2.6 2.5q3.1 3.2 3.1 8 0 2.5-0.8 4.5-0.9 2-2.4 3.4-1.5 1.5-3.6 2.3-2.1 0.8-4.6 0.8zm-2.6-3.6h6.9q2.4 0 4.4-0.8 2.1-0.7 3.5-2.1 1.5-1.4 2.3-3.3 0.8-1.9 0.8-4.2 0-2.3-0.8-4.2-0.8-1.9-2.3-3.4-1.5-1.4-3.5-2.1-2-0.8-4.4-0.8h-6.9zm4.3-3.9v-12.9h2.7q2 0 3.4 0.8 1.5 0.8 2.3 2.2 0.8 1.4 0.8 3.4 0 2-0.8 3.4-0.8 1.5-2.3 2.3-1.5 0.8-3.5 0.8zm0.6-11.9h0.3v-0.4h-0.3zm1 0h0.3v-0.3h-0.3zm1.1 0h0.3v-0.3h-0.3zm1.2-0.1h0.2v-0.2h-0.2zm-2.9 0.6h0.4v-0.3h-0.4zm12.1 15.3h0.5l0.1-0.1v-0.4h0.4l0.1-0.2v-0.4h0.3l0.3-0.4v-0.1h0.1q0.4-0.6 0.7-1.2h-0.2v-0.4h0.3q0.3-0.7 0.5-1.3h-0.2v-0.3h0.2q0.2-0.6 0.2-1.3 0.1-0.6 0.1-1.3 0-1.8-0.4-3.2-0.3-1.4-1.1-2.6-0.8-1.3-2.1-2.5 0.6 1.2 0.9 2.5 0.4 1.4 0.4 2.7 0 0.7-0.1 1.3 0 0.6-0.2 1.2h0.2v0.2h-0.2q-0.1 0.3-0.2 0.7-0.1 0.3-0.2 0.7v0.3h-0.1q-0.2 0.3-0.3 0.6-0.2 0.3-0.3 0.7h0.2v0.3h-0.3v-0.2q-0.2 0.2-0.3 0.4h0.1v0.4h-0.4l-0.1 0.2v0.4h-0.3l-0.2 0.2v0.3h-0.3l-0.2 0.2v0.4h0.5v0.5h0.5v0.6h-0.5v0.5h0.5v-0.5h0.6v0.5h0.5zm-11-15.3h0.4v-0.3h-0.4zm1.2 0h0.3v-0.3h-0.3zm1.2-0.1h0.2v-0.2h-0.2zm1.1 0h0.2v-0.1h-0.2zm-5 0.7h0.3v-0.5h-0.3zm1-0.1h0.4v-0.4h-0.4zm1.1 0h0.3v-0.3h-0.3zm1.2 0h0.3v-0.3h-0.3zm1.1-0.1h0.3v-0.2h-0.3zm1.2 0h0.2v-0.2h-0.2zm-5.6 10.4h2.1q0.1 0 0.2 0 0.1 0 0.2 0v-6.5h-0.4v-0.3h0.4v-0.7h-0.5v-0.5h0.5v-0.5h-0.5v0.5h-0.5v-0.5h0.5v-0.5h-0.5v0.4h-0.5v-0.5h0.4v-0.5h-0.5v0.5h-0.5v-0.5h0.5v-0.5h-0.5v0.4h-0.4v0.7h0.3v0.3h-0.3zm1.5-9.7h0.4v-0.3h-0.4zm1.2 0h0.3v-0.3h-0.3zm1.1 0h0.4v-0.4h-0.4zm1.2 0h0.2v-0.2h-0.2zm1.2-0.1h0.2v-0.1h-0.2zm-4.1 0.6h0.3v-0.4h-0.3zm0.9 9.2q1.6-0.2 2.7-1 1.2-0.7 1.8-2 0.6-1.2 0.6-2.9 0-0.7-0.1-1.4-0.1-0.6-0.3-1.2-0.5-0.2-1.3-0.3-0.6-0.2-1.7-0.2h-1.7zm-2.5-8v-0.4h0.3v0.4zm0.6 0.5v-0.3h0.3v0.3zm0.6 0.5v-0.3h0.3v0.3zm-1 0v-0.2h0.2v0.2zm0.5 0.5v-0.2h0.2v0.2zm0.5 0.6v-0.2h0.2v0.2zm0.5 0.5v-0.2h0.2v0.2zm11.6 0.5v-0.1h0.2v0.1zm0.5 0.6v-0.2h0.2v0.2zm-0.6 0.5v-0.1h0.2v0.1zm1.1 0v-0.1h0.1v0.1zm-0.6 0.6v-0.2h0.2v0.2zm1.1 0v-0.2h0.2v0.2zm-1.7 0.6v-0.3h0.2v0.3zm1.1-0.1v-0.1h0.2v0.1zm-1.7 0.6v-0.2h0.3v0.2zm1.1 0v-0.2h0.2v0.2zm1.1 0v-0.2h0.2v0.2zm-1.7 0.6v-0.3h0.3v0.3zm1.1-0.1v-0.2h0.2v0.2zm-1.7 0.6v-0.3h0.3v0.3zm1.1 0v-0.3h0.3v0.3zm1.1 0v-0.2h0.2v0.2zm-2.8 0.6v-0.4h0.4v0.4zm1.1 0v-0.3h0.3v0.3zm1.1 0v-0.3h0.3v0.3zm-1.7 0.5v-0.3h0.3v0.3zm1.1 0v-0.3h0.3v0.3zm-1.7 0.6v-0.4h0.4v0.4zm1.1 0v-0.4h0.4v0.4zm1.1 0v-0.3h0.3v0.3zm-2.8 0.6v-0.5h0.4v0.5zm1.1 0v-0.4h0.4v0.4zm1.2-0.1v-0.3h0.3v0.3zm-2.8 0.6v-0.4h0.5v0.4zm1.1 0v-0.4h0.4v0.4zm1.1 0v-0.4h0.4v0.4zm-2.8 0.6v-0.5h0.5v0.5zm1.1 0v-0.5h0.5v0.5zm1.1 0v-0.4h0.4v0.4zm1.2-0.1v-0.3h0.3v0.3zm-4.4 0.7h0.5v-0.6h-0.4l-0.1 0.1zm1.6 0v-0.5h0.6v0.5zm1.1 0v-0.5h0.5v0.5zm1.1 0v-0.4h0.4v0.4zm-3.3 0.6h0.5v-0.6h-0.5zm1.6 0.1v-0.6h0.5v0.6zm-2.7-0.1h0.5v-0.5h-0.5zm3.9 0v-0.4h0.4v0.4zm-4.7 0.1h0.2v-0.1zm1.4 0.5h0.5v-0.5h-0.5zm2.7 0v-0.5h0.5v0.5zm-3.7 0h0.4v-0.4h-0.4zm-1.1-0.1h0.4v-0.3l-0.4 0.3zm3.7 0.5h0.6v-0.5h-0.6zm-1 0h0.5v-0.4h-0.5zm-1.1-0.1h0.4v-0.4h-0.4zm-1.1 0h0.4v-0.4h-0.4zm-1 0h0.3v-0.4h-0.3zm-1.1 0.1h0.3v-0.1zm5.9 0.6h0.4l0.1-0.1v-0.4h-0.5zm-1.1 0h0.5v-0.5h-0.5zm-1.1-0.1h0.5v-0.4h-0.5zm-1 0h0.4v-0.4h-0.4zm-1.1 0h0.4v-0.4h-0.4zm-1.1 0h0.3v-0.3h-0.3zm-1-0.1h0.2v-0.2h-0.2zm-1.1-0.1h0.2v-0.1l-0.2 0.1zm7 0.6h0.2l0.2-0.1v-0.3h-0.4zm-1.1 0h0.4v-0.5h-0.4zm-1.1 0h0.4v-0.4h-0.4zm-1 0h0.3v-0.4h-0.3zm-1.1 0h0.3v-0.3h-0.3zm-1.1 0h0.3v-0.3h-0.3zm-1.1 0h0.3v-0.2h-0.3zm-1 0h0.2v-0.2h-0.2zm-1.1-0.1h0.1v-0.1h-0.1zm8 0.7l0.5-0.3v-0.1h-0.5zm-1 0h0.4v-0.4h-0.4zm-1.1 0h0.3v-0.4h-0.3zm-1.1 0h0.3v-0.3h-0.3zm-1.1 0h0.3v-0.3h-0.3zm-1 0h0.2v-0.2h-0.2zm-1.1 0h0.2v-0.2h-0.2zm-1 0h0.1v-0.1h-0.1zm6.9 0.4l0.3-0.2h-0.3zm-1.1 0.3h0.4v-0.4h-0.4zm-1 0h0.3v-0.3h-0.3zm-1.1 0h0.3v-0.3h-0.3zm-1.1 0h0.3v-0.2h-0.3zm-1-0.1h0.1v-0.1h-0.1zm-1.1-0.1h0.1v-0.1h-0.1zm4.8 0.5l0.3-0.1v-0.1h-0.3zm-1 0.1h0.2v-0.2h-0.2zm-1.1-0.1h0.2v-0.2h-0.2zm-1.1 0h0.2v-0.2h-0.2zm-1.1 0h0.2v-0.2h-0.2zm1.7 0.5h0.1v-0.1h-0.1zm-1.1 0.1h0.1v-0.1h-0.1z"/><path class="a" d="m113.9 66.9l-3.2-3.2v-21.9h14.5l3.2 3.3v4.1h-9.5v0.9h4.9l3.2 3.3v4.2h-8.1v1.3h6.7l3.2 3.2v4.8zm-2.6-3.6h14v-3.9h-9.8v-4.8h7.9v-3.9h-7.9v-4.5h9.4v-3.8h-13.6zm16.6-14.4v-3.6l-2.5-2.5v3.8zm-11.8-1.9h0.1v-0.2h-0.1zm6.5 0.2h0.4v-0.4h-0.4zm1.1 0h0.5v-0.4h-0.5zm1.2 0h0.4v-0.4h-0.4zm-3.4 0h0.4v-0.3h-0.4zm-1.1-0.1h0.4v-0.3h-0.4zm-1 0h0.2v-0.2h-0.2zm-1.1 0h0.2v-0.2h-0.2zm-1.1 0h0.1v-0.2h-0.1zm-0.9 0.4h0.4v-0.4h-0.4zm6.9 0.3h0.4v-0.4h-0.4zm1.1 0h0.4v-0.4h-0.4zm1.1 0h0.4v-0.4h-0.4zm-3.3-0.1h0.4v-0.3h-0.4zm-1.1-0.1h0.3v-0.3h-0.3zm-1.1 0h0.3v-0.2h-0.3zm-1.1-0.1h0.2v-0.1h-0.2zm-1.1 0h0.2v-0.2h-0.2zm-1.6 2.5h1.3v-0.4h0.4v0.4h0.6v-0.5h-0.5v-0.5h-0.6v-0.6h-0.5v-0.5h-0.6v-0.5h-0.1v0.6h0.1v0.3h-0.1zm0.7-2h0.4v-0.5h-0.4zm6.9 0.3h0.5v-0.4h-0.5zm1.2 0h0.4v-0.4h-0.4zm1.1 0h0.4v-0.4h-0.4zm-3.3-0.1h0.3v-0.3h-0.3zm-1.1 0h0.3v-0.4h-0.3zm-1.1 0h0.2v-0.2h-0.2zm-1.1-0.1h0.2v-0.2h-0.2zm-1.1 0h0.1v-0.1h-0.1zm-0.9 0.3h0.4v-0.4h-0.4zm6.9 0.3h0.4v-0.4h-0.4zm1.1 0h0.4v-0.4h-0.4zm1.2 0h0.4v-0.4h-0.4zm-3.4 0h0.4v-0.4h-0.4zm-1.1 0h0.3v-0.3h-0.3zm-1.1-0.1h0.3v-0.2h-0.3zm-1.1 0h0.2v-0.2h-0.2zm-1 0h0.1v-0.2h-0.1zm-2.6 0.3v-0.4h0.4v0.4zm1.6 0.1h0.4v-0.5h-0.4zm-1 0.5v-0.4h0.4v0.4zm1.5 0.1h0.1v-0.4h-0.1zm-2 0.3v-0.2h0.2v0.2zm10 7.3v-3.7l-2.5-2.5v3.9zm-10.4-1.7h0.1v-0.4h-0.1zm6.2 0.1h0.4v-0.4h-0.4zm1.1 0h0.4v-0.5h-0.4zm-2.2 0h0.3v-0.3h-0.3zm-1.1-0.1h0.3v-0.2h-0.3zm-1.1-0.1h0.3v-0.2h-0.3zm-1.1 0h0.2v-0.2h-0.2zm-1.1 0h0.2v-0.2h-0.2zm-0.5 0.7h0.4v-0.4h-0.4zm6.5 0h0.5v-0.4h-0.5zm1.2 0h0.4v-0.4h-0.4zm-2.2-0.1h0.3v-0.3h-0.3zm-1.1-0.1h0.3v-0.3h-0.3zm-1.1 0h0.2v-0.3h-0.2zm-1.1 0h0.2v-0.2h-0.2zm-1.1 0h0.1v-0.1h-0.1zm-1.3 2.8h2.4v-0.5h-0.6v-0.6h-0.5v-0.5h-0.6v-0.6h-0.5v-0.5h-0.2v0.6h0.1v0.4h-0.1zm0.8-2.2h0.4v-0.5h-0.4zm6.5 0.1h0.4v-0.5h-0.4zm1.1 0h0.4v-0.4h-0.4zm-2.2 0h0.4v-0.4h-0.4zm-1.1 0h0.3v-0.3h-0.3zm-1.1 0h0.3v-0.3h-0.3zm-1.1 0h0.2v-0.2h-0.2zm-1.1 0h0.2v-0.2h-0.2zm-0.5 0.7h0.4v-0.5h-0.4zm6.6 0.1h0.4v-0.4h-0.4zm1.1 0h0.4v-0.4h-0.4zm-2.2 0h0.3v-0.4h-0.3zm-1.1 0h0.3v-0.3h-0.3zm-1.1-0.1h0.2v-0.2h-0.2zm-1.1 0h0.2v-0.2h-0.2zm-1.1 0h0.2v-0.1h-0.2zm-2.1 0.5v-0.4h0.4v0.4zm1.5 0.1h0.5v-0.5h-0.5zm-1 0.5v-0.4h0.4v0.4zm1.6 0.1h0.1v-0.4h-0.1zm-1.1 0.4v-0.3h0.4v0.3zm-1-0.1v-0.1h0.2v0.1zm12 7.7v-4l-2.5-2.5v4zm-12.2-2.2h0.3v-0.3h-0.3zm1.1 0h0.4v-0.3h-0.4zm1.1 0h0.4v-0.4h-0.4zm1.1 0h0.4v-0.4h-0.4zm1.1 0.1h0.4v-0.5h-0.4zm1.1 0h0.4v-0.4h-0.4zm1.1 0h0.4v-0.4h-0.4zm1.1 0h0.4v-0.4h-0.4zm1.1 0h0.4v-0.4h-0.4zm-9.9 0h0.3v-0.3h-0.3zm-1.1 0h0.2v-0.3h-0.2zm-1.1 0h0.2v-0.2h-0.2zm-1.1 0h0.2v-0.1h-0.2zm6 0.6h0.4v-0.4h-0.4zm1.1 0h0.5v-0.4h-0.5zm1.2 0h0.4v-0.4h-0.4zm1.1 0h0.4v-0.4h-0.4zm1.1 0h0.4v-0.4h-0.4zm1.1 0h0.4v-0.4h-0.4zm1.1 0h0.4v-0.4h-0.4zm1.1 0h0.4v-0.4h-0.4zm-8.9-0.1h0.4v-0.3h-0.4zm-1.1 0h0.3v-0.3h-0.3zm-1-0.1h0.2v-0.2h-0.2zm-1.1 0h0.1v-0.2h-0.1zm-1.1 0h0.1v-0.2h-0.1zm6 0.7h0.4v-0.4h-0.4zm1.1 0h0.4v-0.4h-0.4zm1.1 0h0.4v-0.5h-0.4zm1.1 0h0.4v-0.4h-0.4zm1.1 0h0.4v-0.4h-0.4zm1.1 0h0.4v-0.4h-0.4zm1.1 0h0.5v-0.5h-0.5zm1.1 0h0.5v-0.4h-0.5zm-8.8 0h0.3v-0.4h-0.3zm-1.1 0h0.3v-0.3h-0.3zm-1.1 0h0.3v-0.3h-0.3zm-1.1 0h0.2v-0.2h-0.2zm-1.1 0h0.2v-0.2h-0.2zm6 0.7h0.5v-0.4h-0.5zm1.2 0h0.4v-0.4h-0.4zm1.1 0h0.4v-0.4h-0.4zm1.1 0h0.4v-0.5h-0.4zm1.1 0h0.4v-0.4h-0.4zm1.1 0h0.4v-0.4h-0.4zm1.1 0h0.4v-0.4h-0.4zm1.1 0h0.4v-0.5h-0.4zm-8.8 0h0.3v-0.4h-0.3zm-1.1 0h0.3v-0.3h-0.3zm-1.1 0h0.2v-0.3h-0.2zm-1.1 0h0.2v-0.2h-0.2zm-1.1 0h0.1v-0.2h-0.1zm6 0.7h0.4v-0.4h-0.4zm1.1 0h0.4v-0.4h-0.4zm1.1 0h0.4v-0.3h-0.4zm1.1 0h0.4v-0.4h-0.4zm1.1 0h0.5v-0.4h-0.5zm1.1 0h0.5v-0.4h-0.5zm1.2 0h0.4v-0.4h-0.4zm1.1 0h0.4v-0.4h-0.4zm-8.9 0h0.4v-0.4h-0.4zm-1.1 0h0.3v-0.2h-0.3zm-1.1 0h0.3v-0.3h-0.3zm-1.1 0h0.2v-0.2h-0.2zm-1.1 0h0.2v-0.1h-0.2z"/><path class="a" d="m133.8 66.9l-3.4-3.2v-21.9h8.6q2 0 3.7 0.8 1.6 0.6 2.8 1.8l2.3 2.4q0.9 0.9 1.5 1.8 0.5 0.8 0.8 1.7 0.2 0.9 0.2 2 0 1.6-0.8 3-0.7 1.5-2.1 2.5l5.4 9.1h-6.2l-5-3.1-2.2-4.3h-0.5v7.4zm-2.9-3.6h4.2v-6.9h3.3l3.6 6.9h5.1l-4.3-7.8q1.2-0.7 2.1-1.7 0.9-1 1.3-2.2 0.5-1.1 0.5-2.4 0-1.4-0.5-2.7-0.6-1.2-1.7-2.2-1-0.9-2.4-1.4-1.4-0.5-3.1-0.5h-8.1zm4.2-10.4v-6.7h4q0.9 0.1 1.7 0.5 0.8 0.4 1.2 1.2 0.4 0.7 0.4 1.7 0 0.9-0.4 1.7-0.5 0.7-1.3 1.2-0.8 0.4-1.8 0.4zm12.4 3.6h0.5v-0.5h0.5l0.1-0.2v-0.3h0.3q0.4-0.7 0.6-1.3h-0.2v-0.3h0.2v0.1q0.3-0.8 0.3-1.7 0-0.8-0.2-1.5-0.1-0.7-0.5-1.4-0.3-0.6-0.9-1.4-0.6-0.7-1.5-1.6 0.3 0.7 0.4 1.3 0.2 0.7 0.2 1.6 0 0.7-0.2 1.4h0.2v0.2h-0.2q-0.1 0.3-0.2 0.6-0.1 0.4-0.3 0.7h0.2v0.4h-0.3v-0.1l-0.2 0.3v0.4h-0.2l-0.3 0.3v0.3h-0.1l-0.4 0.4v0.1h0.6v-0.5h0.5v0.5h-0.5v0.5h0.5v-0.5h0.5v0.6h-0.5v0.5h0.5v-0.5h0.6v0.5h-0.5v0.5h0.5v-0.5h0.5v0.6h-0.5zm-11.3-9.4h0.3v-0.3h-0.3zm1.1 0h0.3v-0.3h-0.3zm1.2 0h0.2v-0.2h-0.2zm1.1 0h0.2v-0.2h-0.2zm-3.9 0.7h0.3v-0.4h-0.3zm1 0h0.3v-0.4h-0.3zm1.1 0h0.3v-0.3h-0.3zm1.2 0h0.2v-0.2h-0.2zm1.2-0.1h0.2v-0.1h-0.2zm-4.1 0.6h0.4v-0.4h-0.4zm1.2 0h0.3v-0.4h-0.3zm1.1 0h0.3v-0.3h-0.3zm1.2 0h0.2v-0.2h-0.2zm1.2-0.1h0.1v-0.1h-0.1zm-5.1 4.2h2.3v-0.9h-0.2v-0.4h0.2v-0.6h-0.3v-0.5h-0.6v-0.6h-0.5v-0.6h-0.5v-0.5h-0.4v0.6h0.3v0.4h-0.3zm0.9-3.6h0.5v-0.4h-0.5zm1.3 0.1h0.3v-0.3h-0.3zm1.1 0h0.3v-0.3h-0.3zm1.2-0.1h0.2v-0.2h-0.2zm1.2 0h0.1v-0.2h-0.1zm-4.2 0.6h0.4v-0.4h-0.4zm-1 0.5v-0.5h0.3v0.5zm1.6 0h0.3v-0.4h-0.3zm0.9 2.4h0.4q0.8 0 1.5-0.3 0.6-0.4 1-1 0.4-0.7 0.4-1.5h-3.3zm-1.9-2v-0.4h0.4v0.4zm-1-0.1v-0.2h0.2v0.2zm11.9 0v-0.1h0.2v0.1zm-10.5 0.7v-0.4h0.4v0.4zm-1-0.2v-0.1h0.2v0.1zm12 0v-0.1h0.1v0.1zm-11.4 0.6v-0.2h0.2v0.2zm10.8 0v-0.2h0.2v0.2zm1.1 0v-0.1h0.2v0.1zm-1.8 0.6v-0.3h0.3v0.3zm-9.7 0v-0.3h0.2v0.3zm10.8 0v-0.2h0.2v0.2zm1.2-0.1v-0.1h0.1v0.1zm-1.7 0.7v-0.3h0.3v0.3zm1.1-0.1v-0.2h0.2v0.2zm-1.7 0.7v-0.4h0.3v0.4zm1.2-0.1v-0.3h0.2v0.3zm1.2 0v-0.2h0.1v0.2zm-2.8 0.6v-0.4h0.4v0.4zm1.2 0v-0.4h0.3v0.4zm1.2 0v-0.3h0.2v0.3zm-1.7 0.6v-0.5h0.5v0.5zm1.1-0.1v-0.3h0.4v0.3zm-3.3 0.6h0.4v-0.4h-0.1l-0.3 0.3zm2.7 0v-0.4h0.4v0.4zm1.1 0v-0.4h0.4v0.4zm-3.3 0.5h0.5v-0.4h-0.5zm2.7 0v-0.4h0.5v0.4zm-3.8 0h0.3v-0.4h-0.1l-0.2 0.2zm1.6 0.6h0.5v-0.4h-0.5zm-1 0h0.3v-0.4h-0.3zm6.9 10.5l-4.7-7.9h-0.1v-0.2l-0.1-0.2h-0.5v-0.5h-0.6v-0.5h-0.5v-0.5h-0.6v-0.4h-0.6v-0.6h-0.4l-0.1 0.1 0.2 0.5h0.2v0.4l0.1 0.2v-0.1h0.5v0.4h-0.3l0.6 1.1h0.1v0.2l3 5.5zm-5.3-9.8h0.5v-0.5h-0.5zm-1 0h0.3v-0.3h-0.3zm1.6 0.6h0.4v-0.5h-0.4zm-1.1 0h0.4v-0.4h-0.4zm-10.2 0.6h0.4v-0.5h-0.4zm9 0v-0.4h0.4v0.4zm1.8 0h0.3l0.1-0.1v-0.3h-0.4zm-10.3 0.5h0.5v-0.4h-0.5zm9.1 0v-0.4h0.4v0.4zm-7 8.4v-6.2h-0.5v-0.5h-0.6v-0.6h-0.5v-0.5h-0.6v-0.6h-0.4v5.9zm7.5-8v-0.3h0.3v0.3zm-9.1 0.1h0.4v-0.4h-0.4zm9.8 0.3v-0.3h0.3v0.3zm-1.2 0v-0.3h0.2v0.3zm-9.6 0.2v-0.4h0.4v0.4zm1.6 0.1h0.4v-0.5h-0.4zm9.8 0.1v-0.2h0.2v0.2zm-1.1 0v-0.2h0.2v0.2zm-9.7 0.4v-0.4h0.4v0.4zm1.5 0h0.5v-0.4h-0.5zm-1 0.5v-0.4h0.4v0.4zm-1-0.1v-0.2h0.2v0.2zm1.5 0.7v-0.4h0.4v0.4zm-1-0.1v-0.2h0.2v0.2zm1.5 0.6v-0.4h0.4v0.4zm-1-0.1v-0.2h0.2v0.2zm0.6 0.6v-0.2h0.2v0.2zm0.5 0.5v-0.2h0.2v0.2z"/><path class="a" d="m163.5 66.9l-3.2-3.2v-21.9h8l4.2 3.4 1.9 6.8 3.3-10.2h8l3.4 3.3v21.8h-5.2l-3.2-3.2v-5.8l-3.1 9h-4.3l-2.5-3.2-2.4-6.7v9.9zm-2.7-3.6h4.2v-16.2h0.5l5.7 16.2h3.7l5-13.9 0.7-2.3h0.6v16.2h4.2v-20.9h-7.3l-5 15.4-5-15.4h-7.3zm25.1-20.1h0.4l-0.4-0.4zm-12.8 12.9l1-3.1-2.1-7.5-3.2-2.5zm13.4-12.3h0.4l-0.4-0.4zm-0.6 0.6h0.5v-0.4h-0.5zm1.2-0.1h0.3l-0.3-0.3zm-0.6 0.5h0.4v-0.4h-0.4zm1.1 0h0.4v-0.1l-0.3-0.3h-0.1zm-1.7 0.6h0.5v-0.5h-0.5zm1.1 0h0.5v-0.5h-0.5zm1.2 0h0.3v-0.1l-0.2-0.3h-0.1zm-1.8 0.6h0.6v-0.5h-0.6zm1.2 0h0.4v-0.5h-0.4zm1 20.4v-17h-0.5v-0.5h0.5v-0.6h-0.5v-0.5h-0.6v-0.6h-0.5v-0.6h-0.6v-0.5h-0.5v0.6h0.5v0.5h-0.5v0.6h0.5v0.4h-0.5v15.7zm-1.5-19.8h0.5v-0.5h-0.5zm1.1 0h0.4v-0.4h-0.4zm-0.6 0.5h0.5v-0.5h-0.5zm-1.1 0.6v-0.5h0.5v0.5zm1.7 0h0.4v-0.5h-0.4zm-1.1 0.5v-0.5h0.5v0.5zm0.5 0.6v-0.5h0.5v0.5zm-1-0.1v-0.4h0.4v0.4zm0.6 0.6v-0.5h0.4v0.5zm-1-0.1v-0.4h0.4v0.4zm1.6 0.6v-0.4h0.4v0.4zm-1 0v-0.4h0.4v0.4zm-6.3 0.2h0.1v-0.1zm7.8 0.3v-0.4h0.5v0.4zm-1.1 0v-0.4h0.4v0.4zm-1.1-0.1v-0.3h0.4v0.3zm-20.4 0.1h0.1v-0.1h-0.1zm22 0.5v-0.4h0.4v0.4zm-1.1-0.1v-0.3h0.4v0.3zm-20.4 0.1h0.1l-0.1-0.1zm14 0.2h0.2v-0.2h-0.2zm8 0.3v-0.4h0.4v0.4zm-1.1 0v-0.4h0.3v0.4zm-1-0.1v-0.2h0.2v0.2zm-20.4 0.2h0.2v-0.2h-0.2zm14.1 0.1h0.2v-0.2h-0.1zm7.9 0.3v-0.4h0.4v0.4zm-1.1-0.1v-0.2h0.3v0.2zm-20.5 0.2h0.2v-0.3h-0.2zm14.1 0.2h0.2v-0.2h-0.2zm8 0.2v-0.3h0.3v0.3zm-1 0v-0.3h0.2v0.3zm-1 0v-0.2h0.2v0.2zm-20.5 0.2h0.3v-0.3h-0.3zm1.1-0.1h0.2l-0.1-0.2h-0.1zm13 0.2h0.2v-0.3h-0.2zm8 0.2v-0.3h0.3v0.3zm-1.1 0v-0.2h0.2v0.2zm-20.6 0.2h0.4v-0.3h-0.4zm13.1 0.2h0.3v-0.3h-0.2zm1.1-0.1h0.3v-0.2h-0.3zm8 0.1v-0.2h0.3v0.2zm-1.1 0v-0.2h0.3v0.2zm-1.1 0v-0.2h0.2v0.2zm-20.6 0.3h0.3v-0.4h-0.3zm1-0.1h0.4v-0.3h-0.4zm13.1 0.2h0.3v-0.4h-0.3zm8.1 0.2v-0.3h0.2v0.3zm-1.1-0.1v-0.1h0.2v0.1zm-20.7 0.3h0.4v-0.4h-0.4zm1.1 0h0.4v-0.1l-0.1-0.3h-0.3zm12 0.2h0.3v-0.4h-0.3zm1.1 0h0.3v-0.3h-0.3zm-12.3 11.9v-5.6h-0.1v-0.2h0.1v-0.9h-0.2v-0.2h0.2v-0.8h-0.2v-0.4h0.2v-0.6h-0.3v-0.5h0.3v-0.6h-0.3v-0.5h-0.6v-0.6h-0.5v-0.5h-0.6v-0.6h-0.3v0.6h0.3v0.5h-0.3v0.6h0.3v0.4h-0.3v0.8h0.2v0.2h-0.2v0.9h0.2v0.2h-0.2v5.3zm20.3-11.8v-0.2h0.3v0.2zm-1.1 0v-0.1h0.1v0.1zm-20.6 0.3h0.4v-0.4h-0.4zm12 0.2h0.4v-0.4h-0.3l-0.1 0.3zm1.1 0h0.3v-0.4h-0.3zm8.1 0.1v-0.1h0.1v0.1zm-20.6 0.3h0.4v-0.4h-0.4zm11.9 0.1h0.4v-0.3h-0.4zm1.1-0.1h0.4v-0.3h-0.4zm-1.8 0h0.1v-0.2zm-12.3 0.4v-0.5h0.5v0.5zm22.3-0.4v-0.1h0.1v0.1zm-20.6 0.4h0.2v-0.5h-0.2zm10.8 0.2h0.4v-0.5h-0.4zm1.1 0h0.4v-0.4h-0.4zm-13 0.4v-0.5h0.4v0.5zm11.4 0.2h0.5v-0.5h-0.3l-0.2 0.4zm1.1 0h0.5v-0.4h-0.5zm1.1-0.1h0.5v-0.4h-0.5zm-13 0.4v-0.5h0.5v0.5zm-1-0.1v-0.3h0.3v0.3zm11.7 0.3h0.2v-0.5zm0.7 0h0.5v-0.5h-0.5zm1.1 0h0.5v-0.5h-0.5zm-12.9 0.3v-0.3h0.3v0.3zm10.7 8.8l0.3-0.8h-0.2v-0.6h0.4l0.4-1.1h-0.3v-0.5h0.4l0.4-1.1h-0.2v-0.5h0.4l0.4-1.1h-0.3v-0.6h0.4l0.1-0.3v-0.2h0.1l0.2-0.6h-0.3v-0.5h-0.5v0.5h-0.5v-0.5h0.5v-0.6h-0.5v0.6h-0.6v-0.6h0.6v-0.5h-0.6v0.5h-0.4l-0.4 1.1h0.3v0.6h-0.4l-0.2 0.3v0.2l-0.2 0.6h0.2v0.5h-0.4l-0.1 0.3v0.3h-0.1l-0.2 0.5h0.3v0.5h-0.5l-0.1 0.2v0.4h-0.1l-0.2 0.5h0.3v0.5l0.1 0.1h0.5v0.5h0.5v0.6h-0.2l0.2 0.3v-0.3h0.6v0.5h-0.4zm1.8-8.5h0.5v-0.5h-0.5zm1.1 0l0.2-0.5h-0.2zm-13 0.3v-0.3h0.4v0.3zm-1 0v-0.3h0.2v0.3zm13.4 0.3h0.5v-0.2-0.3h-0.5zm-12.9 0.2v-0.3h0.3v0.3zm10.7 0.4v-0.6h0.5v0.6zm-10.1 0.2v-0.3h0.2v0.3zm-1-0.1v-0.1h0.2v0.1zm11.7 0.4v-0.5h0.5v0.5zm1.2 0v-0.5h0.5v0.5zm-12.3 0.1v-0.1h0.1v0.1zm10.7 0.4v-0.5h0.5v0.5zm1.1 0v-0.5h0.5v0.5zm-11.2 0.2v-0.2h0.2v0.2zm9.5 0.4v-0.5h0.6v0.5zm1 0v-0.5h0.6v0.5zm-0.5 0.5v-0.5h0.5v0.5zm1.1 0v-0.5h0.5v0.5zm-1.6 0.6v-0.6h0.5v0.6zm1.1 0v-0.6h0.5v0.6zm-1.6 0.5v-0.5h0.5v0.5zm1.1 0v-0.5h0.5v0.5zm-0.5 0.6v-0.5h0.5v0.5zm1.1 0v-0.5h0.6v0.5zm-1.7 0.5v-0.5h0.6v0.5zm1.1 0v-0.5h0.5v0.5zm-1.7 0.6v-0.6h0.6v0.6zm1.1 0v-0.6h0.5v0.6zm-0.6 0.5v-0.5h0.6v0.5zm1.1 0v-0.5h0.5v0.5zm-0.5 0.6v-0.6h0.5v0.6z"/><path class="a" d="m194.5 66.9l-3.2-3.2v-21.9h5.3l3.3 3.3v21.8zm-2.6-3.6h4.3v-20.9h-4.3zm4.9-20.2h0.3l-0.3-0.3zm0.5 0.6h0.4l-0.4-0.4zm-0.6 0.6h0.5v-0.4h-0.5zm1.2-0.1h0.4l-0.4-0.3zm-0.6 0.6h0.4v-0.5h-0.4zm1.1 0h0.4l-0.4-0.4zm-1.7 0.7h0.5v-0.6h-0.5zm1.2 0h0.4v-0.4h-0.4zm1.1-0.1h0.4l-0.4-0.4zm-1.8 0.7h0.6v-0.6h-0.6zm1.2 0h0.4v-0.4h-0.4zm1 20.4v-17.1h-0.5v-0.5h0.5v-0.6h-0.5v-0.5h-0.6v-0.6h-0.5v-0.5h-0.6v-0.6h-0.5v0.6h0.5v0.5h-0.5v0.6h0.5v0.4h-0.5v15.8zm-1.5-19.9h0.5v-0.5h-0.5zm1.1 0h0.4v-0.4h-0.4zm-0.6 0.5h0.5v-0.5h-0.5zm-1.1 0.6v-0.5h0.5v0.5zm1.7 0h0.5v-0.5h-0.5zm-1.1 0.5v-0.5h0.5v0.5zm0.5 0.6v-0.5h0.5v0.5zm-1-0.1v-0.4h0.4v0.4zm0.6 0.6v-0.5h0.4v0.5zm-1.1-0.1v-0.4h0.4v0.4zm1.6 0.6v-0.4h0.5v0.4zm-1.1 0v-0.4h0.4v0.4zm1.6 0.5v-0.4h0.5v0.4zm-1.1 0v-0.4h0.4v0.4zm-1.1 0v-0.3h0.4v0.3zm1.6 0.6v-0.4h0.4v0.4zm-1.1-0.1v-0.3h0.3v0.3zm1.7 0.6v-0.4h0.4v0.4zm-1.1 0v-0.3h0.3v0.3zm-1 0v-0.3h0.2v0.3zm1.7 0.5v-0.3h0.3v0.3zm-1.1 0v-0.3h0.3v0.3zm1.6 0.6v-0.4h0.4v0.4zm-1.1 0v-0.3h0.3v0.3zm-1.1-0.1v-0.2h0.2v0.2zm1.6 0.6v-0.3h0.3v0.3zm-1.1 0v-0.2h0.3v0.2zm1.6 0.5v-0.2h0.3v0.2zm-1.1 0v-0.2h0.2v0.2zm-1.1 0v-0.2h0.2v0.2zm1.6 0.6v-0.3h0.2v0.3zm-1-0.1v-0.1h0.1v0.1zm1.6 0.6v-0.2h0.2v0.2zm-1 0v-0.2h0.1v0.2zm0.6 0.5v-0.1h0.1v0.1zm0.6 0.6v-0.2h0.1v0.2z"/><path class="a" d="m205.4 66.9l-3.2-3.2v-21.9h15.1l3.2 3.3v4.6h-9.9v1.3h5l3.2 3.3v4.5h-8.1v8.1zm-2.7-3.6h4.2v-7.8h8.3v-3.9h-8.3v-5.2h10v-4h-14.2zm17.2-14v-4l-2.5-2.5v4.1zm-12.5-2h0.2v-0.3h-0.2zm7.1 0.3h0.4v-0.4h-0.4zm1.1 0h0.4v-0.5h-0.4zm1.1 0h0.4v-0.4h-0.4zm-3.3 0h0.4v-0.4h-0.4zm-1.1 0h0.3v-0.3h-0.3zm-1.1 0h0.3v-0.3h-0.3zm-1.1 0h0.2v-0.2h-0.2zm-1.1 0h0.2v-0.2h-0.2zm-1.3 0.4h0.4v-0.4h-0.4zm7.4 0.3h0.4v-0.4h-0.4zm1.1 0h0.4v-0.4h-0.4zm1.1 0h0.4v-0.4h-0.4zm-3.3-0.1h0.3v-0.3h-0.3zm-1.1 0h0.3v-0.3h-0.3zm-1.1-0.1h0.2v-0.2h-0.2zm-1.1 0h0.2v-0.2h-0.2zm-1.1 0h0.1v-0.2h-0.1zm-2.2 3.1h2.1v-0.3h0.4v0.3h0.2v-0.4h-0.2v-0.6h-0.5v-0.5h-0.6v-0.6h-0.6v-0.5h-0.5v-0.6h-0.3v0.6h0.2v0.4h-0.2v0.8h0.1v0.2h-0.1zm0.9-2.7h0.4v-0.4h-0.4zm7.3 0.3h0.4v-0.5h-0.4zm1.1 0h0.4v-0.4h-0.4zm1.2 0h0.4v-0.4h-0.4zm-3.4 0h0.4v-0.3h-0.4zm-1.1-0.1h0.3v-0.3h-0.3zm-1 0h0.2v-0.2h-0.2zm-1.2 0h0.2v-0.2h-0.2zm-1.1 0h0.2v-0.2h-0.2zm-1.3 0.4h0.5v-0.4h-0.5zm7.4 0.3h0.4v-0.5h-0.4zm1.1 0h0.4v-0.4h-0.4zm1.1 0h0.4v-0.4h-0.4zm-3.3 0h0.3v-0.4h-0.3zm-1.1 0h0.3v-0.3h-0.3zm-1.1-0.1h0.2v-0.2h-0.2zm-1.1-0.1h0.2v-0.1h-0.2zm-1.1 0h0.2v-0.2h-0.2zm-2.9 0.3v-0.4h0.4v0.4zm1.6 0.1h0.4v-0.4h-0.4zm-1.1 0.5v-0.4h0.4v0.4zm1.6 0h0.2v-0.4h-0.2zm-1.1 0.5v-0.4h0.5v0.4zm-1-0.1v-0.2h0.1v0.2zm0.6 0.5v-0.2h0.2v0.2zm9.8 7.5v-3.9l-2.5-2.5v4.1zm-10.8-1.8h0.1v-0.5h-0.1zm6.5 0h0.4v-0.4h-0.4zm1.1 0h0.4v-0.4h-0.4zm-2.2 0h0.4v-0.4h-0.4zm-1.1 0h0.3v-0.3h-0.3zm-1.1 0h0.3v-0.3h-0.3zm-1.1 0h0.2v-0.2h-0.2zm-1.1 0h0.2v-0.2h-0.2zm-0.7 0.7h0.4v-0.4h-0.4zm6.8 0h0.4v-0.4h-0.4zm1.1 0h0.4v-0.4h-0.4zm-2.2 0h0.3v-0.4h-0.3zm-1.1 0h0.3v-0.3h-0.3zm-1.1 0h0.2v-0.3h-0.2zm-1.1 0h0.2v-0.2h-0.2zm-1.1 0h0.2v-0.1h-0.2zm1 9.3v-5.4-0.4-0.6h-0.1v-0.5h-0.6v-0.6h-0.5v-0.5h-0.6v-0.6h-0.6v-0.6h-0.2v0.7h0.2v0.4h-0.2v0.8h0.1v0.2h-0.1v4.6zm-1.8-8.6h0.4v-0.5h-0.4zm6.8 0h0.4v-0.4h-0.4zm1.1 0h0.4v-0.4h-0.4zm-2.2-0.1h0.3v-0.3h-0.3zm-1.1 0h0.3v-0.4h-0.3zm-1.1 0h0.2v-0.2h-0.2zm-1.1-0.1h0.2v-0.2h-0.2zm-1.1 0h0.1v-0.1h-0.1zm-0.8 0.7h0.5v-0.5h-0.5zm6.8 0h0.4v-0.4h-0.4zm1.1 0h0.5v-0.4h-0.5zm-2.2-0.1h0.4v-0.3h-0.4zm-1.1-0.1h0.3v-0.3h-0.3zm-1 0h0.2v-0.3h-0.2zm-1.1 0h0.2v-0.2h-0.2zm-1.1 0h0.1v-0.1h-0.1zm-2.4 0.6v-0.4h0.4v0.4zm1.6 0h0.4v-0.4h-0.4zm-1.1 0.5v-0.4h0.4v0.4zm1.6 0.1h0.1v-0.5h-0.1zm-1.1 0.5v-0.4h0.4v0.4zm-1-0.1v-0.1h0.2v0.1zm1.6 0.7v-0.4h0.4v0.4zm-1-0.1v-0.2h0.2v0.2zm0.5 0.5v-0.1h0.2v0.1zm0.6 0.6v-0.2h0.2v0.2z"/><path class="a" d="m225 66.9l-3.3-3.2v-21.9h15.2l3.2 3.3v4.6h-9.9v1.3h5l3.2 3.3v4.5h-8.2v8.1zm-2.6-3.6h4.2v-7.8h8.3v-3.9h-8.3v-5.2h10v-4h-14.2zm17.2-14v-4l-2.5-2.5v4.1zm-12.5-2h0.2v-0.3h-0.2zm7.1 0.3h0.4v-0.4h-0.4zm1.1 0h0.4v-0.5h-0.4zm1.1 0h0.4v-0.4h-0.4zm-3.3 0h0.3v-0.4h-0.3zm-1.1 0h0.3v-0.3h-0.3zm-1.1 0h0.3v-0.3h-0.3zm-1.1 0h0.2v-0.2h-0.2zm-1.1 0h0.2v-0.2h-0.2zm-1.3 0.4h0.4v-0.4h-0.4zm7.3 0.3h0.5v-0.4h-0.5zm1.2 0h0.4v-0.4h-0.4zm1.1 0h0.4v-0.4h-0.4zm-3.4-0.1h0.4v-0.3h-0.4zm-1.1 0h0.4v-0.3h-0.4zm-1-0.1h0.2v-0.2h-0.2zm-1.1 0h0.2v-0.2h-0.2zm-1.1 0h0.1v-0.2h-0.1zm-2.2 3.1h2v-0.3h0.4v0.3h0.3v-0.4h-0.2v-0.6h-0.6v-0.5h-0.5v-0.6h-0.6v-0.5h-0.5v-0.6h-0.3v0.6h0.2v0.4h-0.2v0.8h0.1v0.2h-0.1zm0.9-2.7h0.4v-0.4h-0.4zm7.3 0.3h0.4v-0.5h-0.4zm1.1 0h0.4v-0.4h-0.4zm1.1 0h0.4v-0.4h-0.4zm-3.3 0h0.4v-0.3h-0.4zm-1.1-0.1h0.3v-0.3h-0.3zm-1.1 0h0.3v-0.2h-0.3zm-1.1 0h0.2v-0.2h-0.2zm-1.1 0h0.2v-0.2h-0.2zm-1.3 0.4h0.5v-0.4h-0.5zm7.4 0.3h0.4v-0.5h-0.4zm1.1 0h0.4v-0.4h-0.4zm1.1 0h0.4v-0.4h-0.4zm-3.4 0h0.4v-0.4h-0.4zm-1 0h0.3v-0.3h-0.3zm-1.1-0.1h0.2v-0.2h-0.2zm-1.1-0.1h0.2v-0.1h-0.2zm-1.1 0h0.1v-0.2h-0.1zm-2.9 0.3v-0.4h0.4v0.4zm1.6 0.1h0.4v-0.4h-0.4zm-1.1 0.5v-0.4h0.4v0.4zm1.6 0h0.1v-0.4h-0.1zm-1.1 0.5v-0.4h0.4v0.4zm-1-0.1v-0.2h0.2v0.2zm0.6 0.5v-0.2h0.2v0.2zm9.8 7.5v-3.9l-2.5-2.5v4.1zm-10.8-1.8h0.1v-0.5h-0.1zm6.5 0h0.4v-0.4h-0.4zm1.1 0h0.4v-0.4h-0.4zm-2.2 0h0.4v-0.4h-0.4zm-1.1 0h0.3v-0.3h-0.3zm-1.1 0h0.3v-0.3h-0.3zm-1.1 0h0.2v-0.2h-0.2zm-1.1 0h0.2v-0.2h-0.2zm-0.7 0.7h0.4v-0.4h-0.4zm6.7 0h0.5v-0.4h-0.5zm1.2 0h0.4v-0.4h-0.4zm-2.3 0h0.4v-0.4h-0.4zm-1 0h0.3v-0.3h-0.3zm-1.1 0h0.2v-0.3h-0.2zm-1.1 0h0.2v-0.2h-0.2zm-1.1 0h0.1v-0.1h-0.1zm1 9.3v-5.4h-0.1v-0.4h0.1v-0.6h-0.2v-0.5h-0.5v-0.6h-0.6v-0.5h-0.5v-0.6h-0.6v-0.6h-0.2v0.7h0.2v0.4h-0.2v0.8 0.2 4.6zm-1.9-8.6h0.5v-0.5h-0.5zm6.8 0h0.5v-0.4h-0.5zm1.2 0h0.4v-0.4h-0.4zm-2.2-0.1h0.3v-0.3h-0.3zm-1.1 0h0.3v-0.4h-0.3zm-1.1 0h0.2v-0.2h-0.2zm-1.1-0.1h0.2v-0.2h-0.2zm-1.1 0h0.1v-0.1h-0.1zm-0.8 0.7h0.4v-0.5h-0.4zm6.8 0h0.4v-0.4h-0.4zm1.1 0h0.4v-0.4h-0.4zm-2.2-0.1h0.4v-0.3h-0.4zm-1.1-0.1h0.3v-0.3h-0.3zm-1.1 0h0.3v-0.3h-0.3zm-1.1 0h0.2v-0.2h-0.2zm-1.1 0h0.2v-0.1h-0.2zm-2.3 0.6v-0.4h0.3v0.4zm1.6 0h0.5v-0.4h-0.5zm-1 0.5v-0.4h0.4v0.4zm1.6 0.1h0.1v-0.5h-0.1zm-1.1 0.5v-0.4h0.4v0.4zm-1-0.1v-0.1h0.2v0.1zm1.6 0.7v-0.4h0.4v0.4zm-1.1-0.1v-0.2h0.3v0.2zm0.5 0.5v-0.1h0.2v0.1zm0.5 0.6v-0.2h0.2v0.2z"/><path class="a" d="m244.5 66.9l-3.2-3.2v-21.9h5.2l3.4 3.3v13.6h5.9l3.2 3.2v5zm-2.6-3.6h13.5v-4h-9.2v-16.9h-4.3zm4.8-20.1h0.4v-0.1l-0.4-0.3zm0.5 0.6h0.5v-0.1l-0.4-0.3h-0.1zm-0.5 0.6h0.4v-0.5h-0.4zm1.1 0h0.4v-0.1l-0.3-0.3h-0.1zm-0.6 0.6h0.5v-0.4h-0.5zm1.2-0.1h0.3v-0.1l-0.2-0.2h-0.1zm-1.7 0.6h0.5v-0.5h-0.5zm1.1 0h0.4v-0.5h-0.4zm1.1 0h0.4v-0.1l-0.3-0.3h-0.1zm-1.7 0.6h0.5v-0.5h-0.5zm1.1 0h0.5v-0.5h-0.5zm-1.6 12.8h2.7v-9.5h-0.5v-0.5h0.5v-0.5h-0.6v-0.6h-0.5v-0.5h-0.6v-0.6h-0.5v-0.5h-0.5v0.5h0.5v0.5h-0.5v0.6h0.4v0.5h-0.4v0.7h0.4v0.4h-0.4zm1-12.2h0.6v-0.5h-0.6zm1.2-0.1h0.4v-0.4h-0.4zm-0.6 0.6h0.5v-0.5h-0.5zm-1.1 0.5v-0.5h0.5v0.5zm1.7 0h0.5v-0.5h-0.5zm-1.1 0.5v-0.5h0.5v0.5zm0.5 0.6v-0.5h0.5v0.5zm-1.1-0.1v-0.4h0.5v0.4zm0.6 0.6v-0.5h0.4v0.5zm0.5 0.6v-0.5h0.5v0.5zm-1.1-0.1v-0.4h0.4v0.4zm1.7 0.6v-0.5h0.4v0.5zm-1 0v-0.4h0.3v0.4zm-1-0.1v-0.3h0.3v0.3zm1.6 0.6v-0.4h0.4v0.4zm-1.1 0v-0.4h0.4v0.4zm1.6 0.6v-0.4h0.4v0.4zm-1.1-0.1v-0.3h0.4v0.3zm-1.1 0v-0.3h0.3v0.3zm1.6 0.6v-0.4h0.3v0.4zm-1-0.1v-0.2h0.2v0.2zm1.6 0.6v-0.3h0.4v0.3zm-1.1 0v-0.3h0.3v0.3zm-1.1-0.1v-0.2h0.2v0.2zm1.7 0.6v-0.2h0.2v0.2zm-1 0v-0.2h0.2v0.2zm1.6 0.6v-0.3h0.3v0.3zm-1.1-0.1v-0.2h0.2v0.2zm-1.1 0v-0.1h0.2v0.1zm1.6 0.6v-0.2h0.2v0.2zm-1 0v-0.2h0.1v0.2zm1.6 0.6v-0.3h0.3v0.3zm-1.1-0.1v-0.1h0.1v0.1zm0.6 0.6v-0.2h0.2v0.2zm0.5 0.5v-0.2h0.2v0.2zm9.4 10.7v-4.2l-2.5-2.5v4.2zm-8.9-2.2h0.3v-0.3h-0.3zm1.1 0h0.3v-0.3h-0.3zm1.1 0.1h0.4v-0.4h-0.4zm1.1 0h0.4v-0.3h-0.4zm1.1 0h0.4v-0.3h-0.4zm1.1 0h0.4v-0.3h-0.4zm-6.6-0.1h0.2v-0.3h-0.2zm-1.1 0h0.2v-0.2h-0.2zm-1.1 0h0.1v-0.1h-0.1zm6 0.7h0.4v-0.4h-0.4zm1.1 0h0.5v-0.4h-0.5zm1.2 0h0.4v-0.4h-0.4zm1.1 0h0.4v-0.5h-0.4zm-4.5 0h0.4v-0.3h-0.4zm-1.1-0.1h0.3v-0.3h-0.3zm-1.1 0h0.3v-0.3h-0.3zm-1.1 0h0.2v-0.2h-0.2zm-1 0h0.1v-0.1h-0.1zm6 0.6h0.4v-0.4h-0.4zm1.1 0h0.4v-0.4h-0.4zm1.1 0h0.4v-0.4h-0.4zm1.1 0h0.4v-0.5h-0.4zm-4.4 0h0.3v-0.4h-0.3zm-1.1 0h0.3v-0.3h-0.3zm-1.1 0h0.3v-0.3h-0.3zm-1.1 0h0.2v-0.2h-0.2zm-1.1 0h0.2v-0.2h-0.2zm6 0.7h0.5v-0.4h-0.5zm1.2 0h0.4v-0.4h-0.4zm1.1 0h0.4v-0.4h-0.4zm1.1 0h0.4v-0.4h-0.4zm-4.5 0h0.4v-0.4h-0.4zm-1.1 0h0.4v-0.3h-0.4zm-1 0h0.2v-0.3h-0.2zm-1.1 0h0.2v-0.2h-0.2zm-1.1 0h0.1v-0.2h-0.1zm6 0.6h0.4v-0.3h-0.4zm1.1 0h0.4v-0.3h-0.4zm1.1 0h0.4v-0.4h-0.4zm1.1 0h0.5v-0.3h-0.5zm-4.4 0h0.4v-0.3h-0.4zm-1.1 0h0.3v-0.2h-0.3zm-1.1 0h0.3v-0.3h-0.3zm-1.1 0h0.2v-0.2h-0.2zm-1.1 0h0.2v-0.1h-0.2z"/><path class="a" d="m262.8 66.9l-3.3-3.2v-21.9h5.3l3.4 3.3v21.8zm-2.7-3.6h4.3v-20.9h-4.3zm4.9-20.2h0.3l-0.3-0.3zm0.5 0.6h0.4l-0.4-0.4zm-0.5 0.6h0.4v-0.4h-0.4zm1.1-0.1h0.4l-0.4-0.3zm-0.6 0.6h0.5v-0.5h-0.5zm1.2 0h0.3l-0.3-0.4zm-1.7 0.7h0.4v-0.6h-0.4zm1.1 0h0.4v-0.4h-0.4zm1.1-0.1h0.4l-0.4-0.4zm-1.7 0.7h0.5v-0.6h-0.5zm1.1 0h0.5v-0.4h-0.5zm1 20.4v-17.1h-0.5v-0.5h0.5v-0.6h-0.5v-0.5h-0.5v-0.6h-0.6v-0.5h-0.5v-0.6h-0.5v0.6h0.4v0.5h-0.4v0.6h0.4v0.4h-0.4v15.8zm-1.6-19.9h0.5v-0.5h-0.5zm1.1 0h0.5v-0.4h-0.5zm-0.6 0.5h0.5v-0.5h-0.5zm-1.1 0.6v-0.5h0.5v0.5zm1.7 0h0.5v-0.5h-0.5zm-1.1 0.5v-0.5h0.5v0.5zm0.6 0.6v-0.5h0.5v0.5zm-1.1-0.1v-0.4h0.4v0.4zm0.6 0.6v-0.5h0.4v0.5zm-1-0.1v-0.4h0.4v0.4zm1.6 0.6v-0.4h0.4v0.4zm-1 0v-0.4h0.4v0.4zm1.6 0.5v-0.4h0.4v0.4zm-1 0v-0.4h0.3v0.4zm-1 0v-0.3h0.3v0.3zm1.6 0.6v-0.4h0.4v0.4zm-1.1-0.1v-0.3h0.4v0.3zm1.6 0.6v-0.4h0.4v0.4zm-1.1 0v-0.3h0.3v0.3zm-1 0v-0.3h0.3v0.3zm1.6 0.5v-0.3h0.3v0.3zm-1.1 0v-0.3h0.3v0.3zm1.6 0.6v-0.4h0.4v0.4zm-1.1 0v-0.3h0.3v0.3zm-1.1-0.1v-0.2h0.3v0.2zm1.6 0.6v-0.3h0.2v0.3zm-1 0v-0.2h0.2v0.2zm1.6 0.5v-0.2h0.3v0.2zm-1.1 0v-0.2h0.2v0.2zm-1 0v-0.2h0.1v0.2zm1.6 0.6v-0.3h0.2v0.3zm-1-0.1v-0.1h0.1v0.1zm1.6 0.6v-0.2h0.3v0.2zm-1.1 0v-0.2h0.1v0.2zm0.6 0.5v-0.1h0.1v0.1zm0.6 0.6v-0.2h0.1v0.2z"/><path class="a" d="m273.6 66.9l-3.2-3.2v-21.9h5l5.5 3.3 3.2 4.9v-8.2h5.1l3.3 3.4v21.7h-5.1l-3.2-3.2-5.4-8v11.2zm-2.7-3.6h4.1v-14.2l9.6 14.2h4.2v-20.9h-4.1v14.1l-9.5-14.1h-4.3zm18.5-20.1h0.4l-0.4-0.3zm-5.7 10.6h0.4v-0.6h-0.4v-0.5h0.4v-0.6h-0.3v-0.5h0.3v-0.7h-0.3v-0.3h0.1l-3.4-5.1-4.2-2.5 4.4 6.5h0.2v0.3l0.2 0.3v-0.1h0.3v0.4h-0.1l0.3 0.5v-0.4h0.4v0.5h-0.4l0.8 1.1h0.2v0.3l0.2 0.3h0.4v0.5h0.5zm6.2-10h0.4l-0.3-0.4h-0.1zm-0.6 0.6h0.5v-0.5h-0.5zm1.2 0h0.4l-0.4-0.4zm-0.6 0.6h0.4v-0.4h-0.4zm1.1-0.1h0.4l-0.4-0.3zm-1.7 0.6h0.5v-0.5h-0.5zm1.2-0.1h0.4v-0.4h-0.4zm1.1 0h0.4l-0.4-0.4zm-1.7 0.6h0.5v-0.5h-0.5zm1.1 0h0.5v-0.5h-0.5zm1 20.4v-16h-0.5v-0.4h0.5v-0.6h-0.5v-0.5h0.5v-0.6h-0.5v-0.6h-0.6v-0.5h-0.5v-0.6h-0.6v-0.5h-0.5v0.6h0.5v0.5h-0.5v16.7zm-1.5-19.8h0.5v-0.5h-0.5zm1.1 0h0.4v-0.5h-0.4zm-0.6 0.6h0.5v-0.5h-0.5zm-1.1 0.6v-0.6h0.5v0.6zm1.7 0h0.4v-0.5h-0.4zm-12-0.1v-0.1h0.1v0.1zm10.9 0.6v-0.5h0.5v0.5zm-1.1 0v-0.5h0.5v0.5zm-9.3-0.1v-0.1h0.1v0.1zm1.2 0v-0.1h0.1v0.1zm9.7 0.6v-0.5h0.5v0.5zm-1 0v-0.4h0.4v0.4zm-9.2 0v-0.2h0.1v0.2zm1.1 0v-0.2h0.1v0.2zm8.8 0.5v-0.4h0.4v0.4zm-1.1 0v-0.4h0.4v0.4zm-8.2 0v-0.1h0.2v0.1zm1.1 0v-0.1h0.2v0.1zm8.7 0.6v-0.5h0.4v0.5zm-1 0v-0.4h0.4v0.4zm-8.3 0v-0.2h0.3v0.2zm1.1 0v-0.2h0.2v0.2zm7.7 0.5v-0.4h0.3v0.4zm-1 0v-0.4h0.3v0.4zm-7.2 0.1v-0.3h0.3v0.3zm1.1 0v-0.3h0.2v0.3zm7.7 0.4v-0.3h0.4v0.3zm-1 0v-0.3h0.3v0.3zm-7.2 0.2v-0.4h0.3v0.4zm8.9 0.4v-0.4h0.4v0.4zm-1.1 0v-0.4h0.4v0.4zm-1.1-0.1v-0.2h0.3v0.2zm-7.3 0.3v-0.5h0.4v0.5zm1.1 0v-0.5h0.4v0.5zm7.9 0.3v-0.3h0.3v0.3zm-1 0v-0.3h0.2v0.3zm-7.3 0.2v-0.5h0.5v0.5zm8.9 0.4v-0.4h0.4v0.4zm-1.1-0.1v-0.2h0.3v0.2zm-7.4 0.3v-0.5h0.5v0.5zm6.3-0.3v-0.2h0.2v0.2zm-13.8 0.4h0.3v-0.2h-0.3zm15.4 0.1v-0.2h0.3v0.2zm-1 0v-0.2h0.2v0.2zm-13.8 0.4h0.2v-0.2h-0.2zm15.4 0.1v-0.3h0.2v0.3zm-1 0v-0.2h0.2v0.2zm-1.1 0v-0.2h0.2v0.2zm-13.9 0.5h0.4v-0.4h-0.4zm1.2 0h0.2v-0.3h-0.2zm6.9 0.2v-0.3h-0.2zm7.4 0v-0.2h0.2v0.2zm-1 0v-0.1h0.1v0.1zm-13.9 0.5h0.4v-0.3h-0.4zm1.2-0.1h0.2v-0.2h-0.2zm6.8 0.2v-0.3h-0.2zm7.5-0.1v-0.3h0.2v0.3zm-1-0.1v-0.1h0.1v0.1zm-15 0.6h0.4v-0.5h-0.4zm1.2 0h0.3v-0.4h-0.3zm1.1 0h0.2v-0.3h-0.2zm13.3 0.1v-0.1h0.1v0.1zm-15 0.6h0.5v-0.5h-0.5zm1.2 0h0.3v-0.3h-0.3zm14.4 0v-0.1h0.1v0.1zm-13.4 10.7v-7.4h-0.5v-0.5h0.5v-0.6h-0.5v-0.5h-0.6v-0.5h-0.5v-0.6h-0.6v-0.5h-0.5v8.1zm-1.5-10.2h0.4v-0.4h-0.4zm1.1 0h0.3v-0.4h-0.3zm-2.2 0.6v-0.5h0.5v0.5zm1.6 0h0.4v-0.4h-0.4zm-1.1 0.5v-0.5h0.5v0.5zm1.6 0h0.5v-0.4h-0.5zm-1.1 0.5v-0.5h0.5v0.5zm-1 0v-0.4h0.4v0.4zm1.6 0.6v-0.5h0.5v0.5zm-1.1-0.1v-0.4h0.4v0.4zm0.5 0.5v-0.3h0.4v0.3zm-1 0v-0.3h0.3v0.3zm1.5 0.6v-0.4h0.4v0.4zm-1-0.1v-0.2h0.3v0.2zm1.5 0.6v-0.3h0.4v0.3zm-1 0v-0.3h0.2v0.3zm-1-0.1v-0.1h0.1v0.1zm1.6 0.6v-0.2h0.3v0.2zm-1.1 0v-0.2h0.2v0.2zm1.6 0.6v-0.3h0.2v0.3zm-1-0.1v-0.1h0.2v0.1zm0.5 0.6v-0.2h0.2v0.2zm0.5 0.5v-0.1h0.1v0.1z"/><path class="b" d="m220.3 74.6q0.1 1.6-0.3 3.1-0.3 1.4-1.1 2.6-0.8 1.2-2 2-1.2 0.8-2.8 0.9-0.6 0.1-1.3 0-0.7-0.1-1.4-0.3-0.4-0.1-0.5-0.5 0-0.3 0.2-0.5 0.1-0.1 0.3-0.2 0.2 0 0.3 0 0.6 0.2 1.2 0.3 0.7 0 1.2 0 1.2-0.1 2.2-0.8 1-0.7 1.6-1.7 0.7-1.1 0.9-2.3 0.3-1.2 0.2-2.5-0.2-2.3-1.9-3.4-1.8-1-4.3-0.8-2.5 0.3-4.2 1.7-1.6 1.5-2.3 3.8-0.7 2.3-0.5 4.9 0.1 0.3-0.1 0.5-0.2 0.2-0.4 0.2-0.3 0-0.5-0.1-0.2-0.2-0.2-0.5-0.3-3.1 0.6-5.6 0.9-2.6 2.8-4.2 1.9-1.7 4.9-2 2-0.1 3.6 0.5 1.6 0.6 2.6 1.9 1 1.2 1.2 3zm-7.7-0.7q-0.5 1.2-0.9 2.9-0.4 1.8-0.7 3.8-0.4 1.7-0.8 3.6-0.4 1.8-0.9 3.6-0.6 1.7-1.3 3.1-0.8 1.5-1.9 2.4-1.1 0.9-2.6 1-1.8 0.2-3.1-0.8-1.3-1-1.5-2.8-0.1-1.3 0.4-2.4 0.5-1.2 1.4-1.9 0.9-0.7 2-0.9 0.5 0 0.9 0.1 0.4 0.1 0.4 0.5 0.1 0.3-0.2 0.5-0.2 0.2-0.5 0.2-0.1-0.1-0.3-0.1-0.1 0.1-0.2 0.1-0.8 0-1.4 0.6-0.7 0.6-1 1.5-0.3 0.8-0.3 1.6 0.2 1.4 1.1 2 1 0.7 2.2 0.6 1.4-0.2 2.4-1.2 1-1.1 1.7-2.9 0.7-1.7 1.2-4 0.6-2.2 1-4.6 0.4-2 0.8-3.9 0.4-1.8 1-3.1 0.3-0.9 1.1-1.6 0.7-0.8 1.4-0.9 0.2 0 0.4 0.1 0.2 0.2 0.3 0.4 0.1 0.3-0.1 0.5-0.2 0.2-0.4 0.3-0.5 0.1-1 0.6-0.4 0.6-0.6 1.1z"/><path class="b" d="m232.8 82.9q0.3 0.1 0.4 0.5 0 0.1-0.1 0.3-0.3 1-0.7 2.1-0.4 1.1-1 2.1-0.6 0.9-1.3 1.6-0.7 0.6-1.7 0.7-1.1 0.1-1.7-0.5-0.5-0.7-0.6-1.7-1.6 2.6-3.5 2.8-1.2 0.1-1.8-0.8-0.7-0.9-0.8-2.2-0.1-1.1 0.1-2.5 0.2-1.5 0.7-2.9 0.4-1.5 1.1-2.8 0.7-1.2 1.6-2 0.9-0.9 1.9-0.9 1.9-0.2 2.8 1.3 0.1-0.4 0.2-0.8 0.1-0.3 0.2-0.6 0.1-0.4 0.5-0.4 0.4-0.1 0.6 0.2 0.2 0.3 0.1 0.5l-1.1 4.1q-0.6 2.2-1.1 4.1-0.4 1.8-0.3 2.8 0.1 1.2 1 1.1 0.6 0 1.2-0.6 0.5-0.6 1-1.4 0.4-0.9 0.8-1.8 0.4-1 0.6-1.8l0.1-0.1q0.1-0.4 0.5-0.5 0.1 0 0.3 0.1zm-10.3 6.6q0.9 0 1.6-0.8 0.7-0.8 1.2-2 0.6-1.2 1-2.5 0.5-1.3 0.8-2.5l0.5-1.9q-0.1-1-0.7-1.5-0.6-0.5-1.3-0.4-0.8 0.1-1.5 0.8-0.7 0.8-1.3 1.9-0.6 1.1-0.9 2.4-0.4 1.2-0.6 2.5-0.2 1.1-0.1 2 0.1 1 0.4 1.5 0.3 0.6 0.9 0.5z"/><path class="b" d="m243.8 81.9q0.4 0.1 0.4 0.5 0 0 0 0.1 0 0.1 0 0.1-0.2 1.1-0.8 2.2-0.6 1-1.5 1.7-0.8 0.7-1.8 0.8-0.7 0.1-1.2-0.1-0.6-0.2-0.9-0.5-0.8 1.3-1.8 2.2-1 0.8-2.3 0.9-1.7 0.1-2.2-1-0.5 1.8-0.9 3.5-0.5 1.7-0.8 2.9-0.3 1.2-0.4 1.7-0.1 0.4-0.5 0.4-0.4 0-0.6-0.2-0.2-0.3-0.1-0.5l2.4-9.4q0.5-1.8 0.9-3.5 0.5-1.7 0.9-3.1 0.4-1.5 0.6-2.5 0.3-1 0.4-1.4l0.1-0.5q0.1-0.4 0.6-0.4 0.3 0 0.5 0.2 0.2 0.3 0.1 0.5l-0.1 0.7q0.5-0.7 1.1-1.2 0.7-0.4 1.5-0.5 1.4-0.1 2 0.8 0.7 0.9 0.8 2.3 0.1 1-0.1 2.3-0.2 1.4-0.7 2.6-0.4 1.3-0.8 2.1 0.5 0.6 1.4 0.5 0.8-0.1 1.4-0.7 0.6-0.6 1-1.5 0.4-0.8 0.6-1.6 0.2-0.4 0.5-0.5 0.1 0 0.3 0.1zm-6.4 0.5q0.3 0 0.5 0.2 0.2 0.2 0.1 0.5 0 0.2 0 0.4 0 0.2 0 0.4 0.5-1.4 0.7-2.8 0.3-1.4 0.2-2.5-0.1-0.9-0.3-1.4-0.3-0.5-1-0.5-0.9 0.1-1.6 0.9-0.7 0.8-1.3 2-0.5 1.2-1 2.5-0.4 1.3-0.7 2.5-0.3 0.9-0.4 1.4-0.1 0.5 0 1.2 0 0.8 0.3 1.1 0.3 0.3 0.9 0.3 1-0.1 1.9-0.9 0.8-0.8 1.4-2-0.3-0.6-0.3-1.4-0.1-0.8 0-1.4 0.1-0.5 0.6-0.5z"/><path class="b" d="m253 81q0.4 0.2 0.4 0.6 0 0 0 0.1 0 0.1 0 0.1-1.2 3.3-2.7 4.9-1.6 1.6-3.8 1.8-1.8 0.2-2.9-0.8-1.1-1-1.3-2.8 0-1.1 0.3-2.5 0.2-1.3 0.7-2.7 0.5-1.3 1.2-2.5 0.8-1.1 1.7-1.8 0.9-0.8 1.9-0.9 1.1 0 1.8 0.4 0.7 0.5 0.8 1.6 0.1 1.1-0.5 2.1-0.6 1-1.7 1.8-1.1 0.9-2.3 1.5-1.3 0.6-2.5 1-0.2 1-0.1 1.9 0.1 1.3 0.8 1.9 0.7 0.7 2 0.6 1.8-0.1 3.1-1.6 1.3-1.4 2.3-4.3 0.1-0.2 0.3-0.3 0.2-0.1 0.5-0.1zm-8.5 0.4q0.8-0.3 1.8-0.8 1-0.5 1.8-1.1 0.9-0.7 1.4-1.4 0.5-0.7 0.4-1.5 0-0.6-0.4-0.7-0.4-0.2-0.9-0.2-0.8 0.1-1.4 0.7-0.6 0.6-1.2 1.4-0.5 0.9-0.9 1.8-0.4 1-0.6 1.8z"/><path class="b" d="m263.7 80q0.4 0.2 0.4 0.6 0 0.1 0 0.2-1.2 3.4-2.2 4.9-1.1 1.6-2.6 1.7-1 0.1-1.6-0.5-0.6-0.7-0.7-1.7-0.1-0.9 0.1-1.9 0.1-0.4 0.3-1.2 0.1-0.8 0.3-1.7 0.2-1 0.4-1.7 0.2-0.8 0.3-1-1.1-0.3-1.7-0.5-0.6-0.1-0.9-0.2-0.3-0.1-0.7-0.2 0 0.1-0.1 0.3 0 0.3-0.3 0.9-0.2 0.6-0.6 1.7-0.4 1.2-1.1 3.1-0.1 0.4-0.5 0.5-0.1 0-0.3-0.1-0.3-0.1-0.4-0.5 0-0.1 0.1-0.3l1.8-5.2 0.3-0.9q-0.7-0.4-1.2-1-0.4-0.5-0.5-1.3-0.1-0.9 0.4-1.5 0.5-0.5 1.2-0.6 0.8-0.1 1.3 0.4 0.5 0.5 0.6 1.4 0 0.3-0.1 0.7-0.1 0.3-0.2 1.2 0.6 0.2 1.3 0.4 0.7 0.2 1.4 0.4 0.3 0 0.6 0.1 0.3 0 0.5 0.1 0.3 0.1 0.4 0.3 0.1 0.2 0.1 0.5-0.2 0.4-0.4 1.3-0.2 0.8-0.4 1.8-0.3 1-0.4 1.8-0.2 0.9-0.3 1.1-0.1 0.5-0.1 0.9 0 0.4 0 0.7 0.1 0.6 0.3 0.9 0.2 0.3 0.7 0.3 1.1-0.1 1.9-1.5 0.8-1.3 1.8-4.3 0.2-0.4 0.5-0.4 0.1 0 0.3 0zm-9.2-6.2q0-0.4-0.2-0.5-0.1-0.2-0.3-0.2-0.6 0.1-0.5 0.7 0.1 0.7 0.8 1.2 0.1-0.3 0.2-0.7 0-0.3 0-0.5z"/><path class="b" d="m289.6 77.7q0.6 0.2 0.4 0.7-1.2 4-3.2 6.3-2.1 2.4-5.5 2.7-2.8 0.2-4.4-1.2-1.6-1.5-1.9-4.2-0.1-1.4 0.1-2.9 0.2-1.5 0.6-3.2-2.3-0.3-3.7-1.7-1.5-1.3-1.7-3.5-0.1-1.5 0.3-3.1 0.4-1.5 1.3-2.8 0.1-0.2 0.4-0.2 0.2 0 0.5 0.1 0.1 0.1 0.2 0.4 0 0.3-0.1 0.4-0.7 1-1.1 2.4-0.4 1.4-0.3 2.6 0.2 2 1.4 3 1.3 1 3.1 1.2 0.5-1.8 1.2-3.7 0.8-1.9 1.8-3.6 1-1.6 2.3-2.7 1.3-1 2.9-1.1 1.8-0.2 2.8 0.9 1 1.1 1.2 2.8 0.1 1.8-0.7 3.3-0.8 1.5-2.3 2.7-1.5 1.1-3.3 1.8-1.8 0.7-3.7 0.9-0.3 0-0.6 0-0.3 0-0.7 0-0.3 1.6-0.6 3.1-0.2 1.5 0 2.7 0.2 2.4 1.5 3.5 1.3 1.1 3.4 0.9 3-0.3 4.8-2.4 1.7-2.1 2.8-5.7 0.1-0.3 0.3-0.4 0.3-0.1 0.5 0zm-12.3-2.9q0.1 0 0.3 0 0.2 0 0.4-0.1 1.7-0.1 3.3-0.7 1.6-0.6 2.9-1.5 1.4-1 2.1-2.3 0.8-1.3 0.6-2.8-0.1-1.2-0.8-2-0.6-0.7-1.8-0.6-1.3 0.1-2.4 1.1-1.1 1-2 2.5-0.9 1.5-1.6 3.2-0.6 1.7-1 3.2z"/><path class="b" d="m301.4 77.4q-0.8 2.3-1.8 3.4-0.9 1.1-2.2 1.3-1.3 0.1-2.3-0.6-0.7 1.1-1.7 2-1 0.9-2 1-1.4 0.1-2.1-0.7-0.6-0.8-0.7-2-0.2-1.7 0.1-3.2 0.3-1.5 0.8-2.7 0.4-1.3 0.9-2.1 1.5-3.2 3.8-3.4 1.4-0.1 2.2 0.7 0.8 0.8 1 2.1 0 0.9-0.1 2.1-0.2 1.3-0.6 2.6-0.4 1.3-1 2.5 0.6 0.5 1.6 0.4 0.9 0 1.6-1 0.7-0.9 1.3-2.8 0.1-0.4 0.5-0.4 0.3 0 0.6 0.2 0.2 0.3 0.1 0.6zm-6.9-0.2q0.4-0.1 0.6 0.2 0.2 0.2 0.1 0.5 0 0.2 0 0.4 0 0.1-0.1 0.3 0.6-1.4 0.9-2.9 0.2-1.4 0.1-2.4 0-0.9-0.6-1.4-0.5-0.4-1.3-0.3-0.8 0.1-1.5 0.8-0.7 0.8-1.2 1.9-0.3 0.7-0.8 1.8-0.4 1.2-0.7 2.6-0.3 1.4-0.1 2.9 0 0.8 0.3 1.3 0.4 0.4 1.1 0.4 0.8-0.1 1.6-0.9 0.8-0.9 1.4-2-0.3-0.5-0.3-1.3-0.1-0.8 0-1.4 0-0.5 0.5-0.5z"/><path class="c" d="m222.2 74.3q0.1 1.5-0.2 3-0.4 1.5-1.2 2.7-0.8 1.2-2 2-1.2 0.7-2.7 0.9-0.7 0-1.4 0-0.7-0.1-1.4-0.3-0.4-0.1-0.5-0.6 0-0.3 0.2-0.4 0.2-0.2 0.4-0.2 0.1 0 0.2 0 0.6 0.1 1.3 0.2 0.6 0.1 1.1 0 1.3-0.1 2.2-0.7 1-0.7 1.7-1.8 0.6-1 0.9-2.3 0.3-1.2 0.2-2.4-0.2-2.4-2-3.4-1.8-1.1-4.3-0.8-2.5 0.2-4.1 1.7-1.6 1.4-2.4 3.7-0.7 2.3-0.4 5 0 0.2-0.2 0.4-0.1 0.2-0.4 0.2-0.2 0.1-0.4-0.1-0.2-0.2-0.2-0.4-0.3-3.1 0.5-5.7 0.9-2.6 2.8-4.2 2-1.6 5-1.9 1.9-0.2 3.5 0.4 1.6 0.6 2.6 1.9 1 1.3 1.2 3.1zm-7.7-0.8q-0.4 1.2-0.8 3-0.4 1.8-0.8 3.7-0.3 1.8-0.7 3.6-0.4 1.9-1 3.6-0.5 1.8-1.3 3.2-0.7 1.4-1.8 2.3-1.1 0.9-2.7 1-1.8 0.2-3.1-0.8-1.3-1-1.4-2.7-0.2-1.3 0.3-2.5 0.5-1.1 1.4-1.9 0.9-0.7 2.1-0.8 0.4 0 0.8 0.1 0.4 0.1 0.5 0.5 0 0.3-0.3 0.5-0.2 0.2-0.5 0.1-0.1 0-0.2 0-0.1 0-0.3 0-0.8 0.1-1.4 0.7-0.6 0.6-1 1.4-0.3 0.8-0.2 1.7 0.1 1.3 1.1 2 0.9 0.6 2.1 0.5 1.5-0.1 2.5-1.2 1-1.1 1.7-2.8 0.7-1.8 1.2-4 0.5-2.2 1-4.7 0.4-2 0.8-3.8 0.4-1.9 0.9-3.1 0.3-0.9 1.1-1.7 0.8-0.7 1.4-0.8 0.3 0 0.5 0.1 0.2 0.1 0.2 0.3 0.1 0.4-0.1 0.6-0.1 0.1-0.3 0.2-0.6 0.1-1 0.7-0.4 0.5-0.7 1zm20.2 9q0.4 0.2 0.4 0.5 0 0.1 0 0.3v0.1q-0.4 0.9-0.8 2-0.4 1.1-1 2.1-0.5 1-1.3 1.6-0.7 0.7-1.7 0.8-1 0.1-1.6-0.6-0.6-0.6-0.7-1.7-1.5 2.6-3.4 2.8-1.2 0.1-1.9-0.7-0.7-0.9-0.8-2.2-0.1-1.1 0.1-2.6 0.2-1.4 0.7-2.9 0.5-1.5 1.2-2.7 0.6-1.3 1.5-2.1 0.9-0.8 2-0.9 1.9-0.2 2.8 1.3 0.1-0.4 0.2-0.7 0-0.4 0.1-0.7 0.2-0.3 0.6-0.4 0.3 0 0.5 0.2 0.2 0.3 0.1 0.6l-1.1 4q-0.6 2.3-1 4.1-0.5 1.9-0.4 2.8 0.1 1.2 1 1.2 0.7-0.1 1.2-0.7 0.6-0.5 1-1.4 0.5-0.8 0.8-1.8 0.4-1 0.7-1.8v-0.1q0.2-0.4 0.5-0.4 0.1 0 0.3 0zm-10.2 6.7q0.8-0.1 1.5-0.9 0.7-0.8 1.3-1.9 0.5-1.2 1-2.5 0.4-1.4 0.7-2.5l0.5-1.9q-0.1-1-0.7-1.5-0.5-0.6-1.3-0.5-0.8 0.1-1.5 0.9-0.7 0.7-1.3 1.8-0.5 1.1-0.9 2.4-0.4 1.3-0.6 2.5-0.1 1.2-0.1 2.1 0.1 0.9 0.4 1.5 0.3 0.5 1 0.5zm21.2-7.7q0.4 0.1 0.4 0.5 0.1 0.1 0 0.1 0 0.1 0 0.2-0.2 1.1-0.8 2.1-0.6 1-1.4 1.7-0.9 0.8-1.9 0.8-0.6 0.1-1.2-0.1-0.5-0.1-0.9-0.4-0.8 1.2-1.8 2.1-1 0.9-2.3 1-1.6 0-2.2-1.1-0.5 1.9-0.9 3.6-0.5 1.7-0.8 2.9-0.3 1.2-0.4 1.6-0.1 0.4-0.5 0.5-0.3 0-0.5-0.3-0.2-0.2-0.2-0.5l2.5-9.4q0.4-1.8 0.9-3.4 0.4-1.7 0.8-3.2 0.4-1.5 0.7-2.5 0.2-1 0.3-1.3l0.2-0.5q0.1-0.4 0.5-0.5 0.3 0 0.5 0.2 0.3 0.3 0.2 0.6l-0.2 0.6q0.5-0.7 1.2-1.1 0.7-0.5 1.5-0.6 1.3-0.1 2 0.8 0.6 1 0.7 2.3 0.1 1-0.1 2.4-0.2 1.3-0.6 2.6-0.5 1.2-0.9 2.1 0.6 0.5 1.4 0.4 0.8 0 1.4-0.6 0.6-0.6 1.1-1.5 0.4-0.9 0.5-1.7 0.2-0.4 0.6-0.4 0 0 0.2 0zm-6.4 0.5q0.3 0 0.5 0.2 0.2 0.2 0.2 0.6-0.1 0.2-0.1 0.4 0 0.2 0 0.3 0.5-1.4 0.8-2.7 0.3-1.4 0.2-2.5-0.1-0.9-0.4-1.5-0.3-0.5-1-0.4-0.9 0-1.6 0.8-0.7 0.8-1.2 2-0.6 1.2-1 2.5-0.5 1.4-0.8 2.5-0.2 1-0.4 1.4-0.1 0.5 0 1.2 0.1 0.8 0.3 1.1 0.3 0.4 0.9 0.3 1.1 0 1.9-0.8 0.8-0.8 1.5-2-0.4-0.7-0.4-1.4-0.1-0.8 0.1-1.4 0-0.5 0.5-0.6zm15.6-1.3q0.4 0.1 0.5 0.5 0 0.1 0 0.1-0.1 0.1-0.1 0.2-1.1 3.2-2.7 4.9-1.5 1.6-3.7 1.8-1.8 0.2-3-0.8-1.1-1.1-1.2-2.8-0.1-1.1 0.2-2.5 0.2-1.4 0.7-2.7 0.5-1.4 1.3-2.5 0.7-1.2 1.6-1.9 0.9-0.7 1.9-0.8 1.1-0.1 1.9 0.4 0.7 0.5 0.8 1.5 0.1 1.2-0.5 2.2-0.7 1-1.8 1.8-1 0.8-2.3 1.4-1.3 0.6-2.4 1-0.3 1.1-0.2 2 0.1 1.2 0.8 1.9 0.8 0.6 2.1 0.6 1.8-0.2 3.1-1.6 1.3-1.4 2.2-4.3 0.1-0.3 0.4-0.4 0.2-0.1 0.4 0zm-8.5 0.4q0.9-0.4 1.8-0.9 1-0.5 1.9-1.1 0.8-0.6 1.3-1.3 0.5-0.8 0.5-1.6-0.1-0.6-0.5-0.7-0.4-0.1-0.9-0.1-0.7 0.1-1.4 0.6-0.6 0.6-1.1 1.5-0.5 0.8-0.9 1.8-0.4 0.9-0.7 1.8zm19.2-1.4q0.4 0.1 0.4 0.5 0.1 0.1 0 0.3-1.1 3.4-2.2 4.9-1.1 1.5-2.5 1.7h-0.1q-1 0.1-1.6-0.6-0.6-0.6-0.7-1.7 0-0.8 0.2-1.9 0-0.4 0.2-1.2 0.2-0.8 0.4-1.7 0.2-0.9 0.4-1.7 0.2-0.8 0.2-1-1.1-0.3-1.7-0.4-0.6-0.2-0.9-0.3-0.3-0.1-0.6-0.2-0.1 0.1-0.1 0.4-0.1 0.2-0.3 0.8-0.2 0.6-0.6 1.8-0.4 1.1-1.1 3.1-0.2 0.4-0.5 0.4-0.2 0-0.3 0-0.4-0.2-0.4-0.5 0-0.1 0-0.3l1.9-5.3 0.2-0.9q-0.7-0.4-1.1-0.9-0.5-0.6-0.6-1.4-0.1-0.9 0.4-1.4 0.5-0.6 1.2-0.6 0.8-0.1 1.3 0.4 0.5 0.5 0.6 1.3 0 0.4-0.1 0.7 0 0.4-0.2 1.2 0.6 0.3 1.3 0.4 0.8 0.2 1.4 0.4 0.4 0.1 0.6 0.1 0.3 0.1 0.6 0.2 0.2 0 0.3 0.3 0.2 0.2 0.1 0.5-0.1 0.3-0.3 1.2-0.3 0.9-0.5 1.9-0.2 1-0.4 1.8-0.2 0.8-0.2 1.1-0.1 0.4-0.1 0.8 0 0.4 0 0.8 0 0.6 0.2 0.9 0.3 0.3 0.7 0.2 1.1-0.1 1.9-1.4 0.8-1.4 1.8-4.3 0.2-0.4 0.6-0.4 0-0.1 0.2 0zm-9.1-6.3q-0.1-0.4-0.2-0.5-0.2-0.1-0.4-0.1-0.5 0-0.5 0.6 0.1 0.8 0.9 1.3 0-0.4 0.1-0.7 0.1-0.4 0.1-0.6zm35 3.9q0.6 0.2 0.4 0.8-1.2 3.9-3.2 6.3-2.1 2.3-5.5 2.6-2.8 0.3-4.4-1.2-1.6-1.5-1.8-4.2-0.2-1.3 0-2.8 0.3-1.6 0.6-3.3-2.2-0.3-3.7-1.6-1.5-1.4-1.7-3.6-0.1-1.4 0.3-3 0.5-1.6 1.3-2.8 0.2-0.2 0.4-0.3 0.3 0 0.5 0.2 0.2 0.1 0.2 0.4 0 0.2-0.1 0.4-0.7 0.9-1.1 2.4-0.4 1.4-0.3 2.6 0.2 1.9 1.5 2.9 1.2 1 3.1 1.2 0.4-1.7 1.2-3.7 0.7-1.9 1.7-3.5 1.1-1.7 2.4-2.7 1.3-1.1 2.8-1.2 1.8-0.1 2.8 0.9 1 1.1 1.2 2.8 0.2 1.9-0.7 3.4-0.8 1.5-2.3 2.6-1.4 1.2-3.3 1.9-1.8 0.6-3.6 0.8-0.4 0-0.7 0-0.3 0-0.6 0-0.4 1.7-0.6 3.2-0.2 1.4-0.1 2.7 0.2 2.3 1.5 3.4 1.3 1.1 3.4 0.9 3.1-0.3 4.8-2.4 1.8-2.1 2.9-5.7 0-0.2 0.3-0.3 0.2-0.2 0.4-0.1zm-12.3-2.9q0.2 0.1 0.4 0 0.1 0 0.4 0 1.6-0.2 3.2-0.7 1.6-0.6 3-1.6 1.3-0.9 2.1-2.2 0.7-1.3 0.6-2.8-0.2-1.3-0.8-2-0.7-0.8-1.9-0.7-1.3 0.1-2.4 1.2-1.1 1-2 2.5-0.9 1.5-1.6 3.2-0.6 1.6-1 3.1zm24.1 2.6q-0.7 2.3-1.7 3.5-1 1.1-2.3 1.2-1.2 0.1-2.3-0.6-0.7 1.2-1.7 2.1-0.9 0.8-2 0.9-1.4 0.2-2-0.6-0.7-0.8-0.8-2.1-0.1-1.7 0.2-3.2 0.2-1.5 0.7-2.7 0.5-1.2 0.9-2.1 1.5-3.2 3.8-3.4 1.5-0.1 2.3 0.7 0.8 0.9 0.9 2.2 0.1 0.9-0.1 2.1-0.2 1.2-0.6 2.5-0.4 1.3-0.9 2.5 0.5 0.6 1.5 0.5 0.9-0.1 1.6-1 0.7-1 1.3-2.8 0.1-0.4 0.5-0.5 0.4 0 0.6 0.3 0.2 0.2 0.1 0.5zm-6.8-0.2q0.3 0 0.5 0.2 0.2 0.2 0.1 0.5 0 0.2 0 0.4 0 0.2 0 0.3 0.5-1.4 0.8-2.8 0.3-1.5 0.2-2.5-0.1-0.9-0.6-1.3-0.6-0.4-1.3-0.4-0.8 0.1-1.5 0.9-0.7 0.7-1.3 1.9-0.3 0.6-0.7 1.8-0.5 1.1-0.8 2.5-0.3 1.4-0.1 3 0 0.7 0.4 1.2 0.3 0.5 1 0.4 0.8-0.1 1.6-0.9 0.8-0.8 1.4-1.9-0.3-0.6-0.3-1.4-0.1-0.8 0-1.4 0.1-0.4 0.6-0.5z"/></svg>